<svg width="56" height="56" viewBox="0 0 56 56" fill="none" xmlns="http://www.w3.org/2000/svg">
<g filter="url(#filter0_d_4030_41)">
<rect x="8.51709" y="5" width="38.5171" height="38.5171" rx="19.2586" fill="white"/>
<path d="M33.9392 27.3747C34.4689 28.1421 35.0762 28.6383 35.761 28.8632C35.4639 29.8027 34.9922 30.7818 34.3462 31.8006C33.3512 33.3355 32.3692 34.1029 31.4002 34.1029C31.0384 34.1029 30.5021 33.9772 29.7915 33.7258C29.1325 33.4744 28.5575 33.3487 28.0665 33.3487C27.5755 33.3487 27.0328 33.481 26.4384 33.7457C25.8182 33.9971 25.3078 34.1228 24.9073 34.1228C23.7444 34.1228 22.6009 33.1106 21.4767 31.0861C20.3526 29.0882 19.7905 27.1233 19.7905 25.1915C19.7905 23.4052 20.2169 21.9431 21.0697 20.8052C21.9484 19.6673 23.0337 19.0983 24.3258 19.0983C24.6101 19.0983 24.9267 19.1347 25.2755 19.2075C25.6244 19.2803 25.9862 19.4159 26.3609 19.6144C26.7615 19.8393 27.091 19.9948 27.3494 20.0808C27.6078 20.1668 27.8081 20.2098 27.9502 20.2098C28.1182 20.2098 28.3766 20.1701 28.7255 20.0907C29.0744 20.0113 29.4232 19.8658 29.7721 19.6541C30.1468 19.4423 30.4698 19.2836 30.7412 19.1777C31.0125 19.0719 31.2903 19.0189 31.5746 19.0189C32.4791 19.0189 33.2931 19.2703 34.0167 19.7731C34.4043 20.0378 34.7984 20.4281 35.199 20.9441C34.6046 21.4734 34.1717 21.9365 33.9004 22.3334C33.3965 23.0744 33.1445 23.8815 33.1445 24.7548C33.1445 25.7207 33.4094 26.594 33.9392 27.3747ZM30.0434 18.106C29.5912 18.5426 29.1777 18.8271 28.803 18.9594C28.6738 18.9991 28.5091 19.0355 28.3088 19.0686C28.1085 19.1016 27.8792 19.1314 27.6207 19.1579C27.6336 17.9935 27.9308 16.9879 28.5123 16.1411C29.0937 15.2942 30.0499 14.7121 31.3808 14.3945C31.4066 14.5268 31.426 14.6194 31.4389 14.6724V14.8907C31.4389 15.367 31.3291 15.9029 31.1094 16.4983C30.8769 17.0805 30.5215 17.6164 30.0434 18.106Z" fill="#272636"/>
</g>
<defs>
<filter id="filter0_d_4030_41" x="0.156059" y="0.709884" width="55.2392" height="55.2392" filterUnits="userSpaceOnUse" color-interpolation-filters="sRGB">
<feFlood flood-opacity="0" result="BackgroundImageFix"/>
<feColorMatrix in="SourceAlpha" type="matrix" values="0 0 0 0 0 0 0 0 0 0 0 0 0 0 0 0 0 0 127 0" result="hardAlpha"/>
<feOffset dy="4.07091"/>
<feGaussianBlur stdDeviation="4.18052"/>
<feComposite in2="hardAlpha" operator="out"/>
<feColorMatrix type="matrix" values="0 0 0 0 0 0 0 0 0 0 0 0 0 0 0 0 0 0 0.18 0"/>
<feBlend mode="normal" in2="BackgroundImageFix" result="effect1_dropShadow_4030_41"/>
<feBlend mode="normal" in="SourceGraphic" in2="effect1_dropShadow_4030_41" result="shape"/>
</filter>
</defs>
</svg>
