<svg width="34" height="34" viewBox="0 0 34 34" fill="none" xmlns="http://www.w3.org/2000/svg">
    <path opacity="0.4" d="M20.426 7.77741C19.7516 7.65283 19.1322 8.0832 19.0038 8.7415C18.8754 9.3998 19.3071 10.0425 19.9632 10.1714C21.9384 10.5564 23.4635 12.0854 23.8501 14.0673V14.0688C23.9602 14.6393 24.4624 15.0541 25.0409 15.0541C25.1185 15.0541 25.1961 15.047 25.2751 15.0328C25.9311 14.9012 26.3629 14.2599 26.2345 13.6002C25.6574 10.6399 23.3789 8.3536 20.426 7.77741Z" fill="#FF6628"/>
    <path opacity="0.4" d="M20.3376 2.84458C20.0216 2.79928 19.7041 2.89271 19.4516 3.09374C19.192 3.2976 19.0297 3.59206 18.9945 3.92192C18.9197 4.58871 19.4008 5.1918 20.0667 5.26683C24.6591 5.77931 28.2286 9.35677 28.7449 13.9634C28.8141 14.5807 29.3319 15.0464 29.9498 15.0464C29.9964 15.0464 30.0415 15.0436 30.0881 15.038C30.4112 15.0026 30.699 14.8426 30.9021 14.5878C31.1039 14.3329 31.1956 14.0158 31.1589 13.6916C30.5156 7.94391 26.0671 3.48306 20.3376 2.84458Z" fill="#FF6628"/>
    <path d="M24.9401 20.7868C24.0217 20.5914 23.2951 21.0162 22.6517 21.3871C21.9928 21.7693 20.7386 22.7815 20.0219 22.521C16.3452 21.0147 12.8871 17.8082 11.3902 14.133C11.1264 13.4011 12.138 12.1454 12.5175 11.4829C12.8886 10.8401 13.3062 10.1082 13.1157 9.18803C12.9436 8.35984 10.7172 5.53837 9.92998 4.76681C9.40937 4.25716 8.87888 3.97685 8.33288 3.93014C6.28008 3.84378 3.98743 6.57182 3.58534 7.22446C2.57657 8.61609 2.58362 10.4678 3.60227 12.7131C6.05716 18.744 15.342 27.8455 21.42 30.3824C22.5402 30.9048 23.5674 31.1667 24.4886 31.1667C25.3902 31.1667 26.193 30.9161 26.8829 30.4192C27.4021 30.1205 30.2548 27.7237 30.1786 25.6242C30.1349 25.0891 29.8542 24.554 29.3491 24.0358C28.5787 23.2445 25.7655 20.9609 24.9401 20.7868Z" fill="#FF6628"/>
</svg>
