<svg width="30" height="30" viewBox="0 0 30 30" fill="none" xmlns="http://www.w3.org/2000/svg">
    <path d="M26.2492 23.983V20.5958C26.263 20.0421 26.0724 19.5026 25.7136 19.0801C24.7019 17.8883 21.2318 17.126 19.8564 17.4187C18.7841 17.647 18.034 18.7235 17.3006 19.4555C14.4683 17.8482 12.1232 15.5077 10.5127 12.6811C11.2461 11.9491 12.3248 11.2005 12.5535 10.1303C12.8464 8.75972 12.0852 5.31187 10.9016 4.29605C10.4854 3.93875 9.95309 3.74472 9.40406 3.75011H6.01014C4.71697 3.75132 3.64109 4.91118 3.75883 6.21148C3.75 17.4187 12.5 26.25 23.783 26.2412C25.0903 26.3591 26.2545 25.2779 26.2492 23.983Z" stroke="#0D1C39" stroke-width="1.5" stroke-linecap="round" stroke-linejoin="round"/>
</svg>
