<svg width="34" height="34" viewBox="0 0 34 34" fill="none" xmlns="http://www.w3.org/2000/svg">
    <path d="M2.93188 16.8186C3.31835 8.77265 10.1545 2.56303 18.2004 2.94949C26.2463 3.33607 32.4551 10.1721 32.0686 18.218C30.9778 29.8472 19.3492 32.2869 13.6711 32.053C10.9556 32.0253 7.38791 31.9488 5.01978 31.8098C4.27812 31.7663 3.90978 30.9297 4.35669 30.3362L5.70728 28.5413C6.2606 27.8065 6.20445 26.7902 5.66626 26.0442C3.8017 23.4598 2.76718 20.2492 2.93188 16.8186ZM11.3596 19.0589C10.5637 19.0623 9.92095 19.7102 9.92407 20.5061C9.9275 21.3021 10.5754 21.9448 11.3713 21.9417L19.4426 21.9075C20.2386 21.904 20.8815 21.2563 20.8782 20.4602C20.8746 19.6645 20.2266 19.0217 19.4309 19.0247L11.3596 19.0589ZM11.3645 13.387C10.5687 13.3873 9.92338 14.0326 9.9231 14.8284C9.9231 15.6244 10.5686 16.2695 11.3645 16.2698H22.9065C23.7027 16.2698 24.3479 15.6246 24.3479 14.8284C24.3476 14.0325 23.7025 13.387 22.9065 13.387H11.3645Z" fill="#4FBF67"/>
</svg>
