<svg width="50" height="50" viewBox="0 0 50 51" fill="none" xmlns="http://www.w3.org/2000/svg">
    <circle cx="24.6716" cy="20.4948" r="20.4531" fill="#CBF0FB"/>
    <g clip-path="url(#clip0_0_1)" filter="url(#filter0_d_0_1)">
        <path d="M14.6419 15.3515L15.4419 16.2815L16.6419 17.6866L17.4419 18.6215L18.7319 20.1315C18.9569 20.3965 19.2219 20.6165 19.5219 20.7866L21.5768 21.9715C22.1918 22.3315 22.8918 22.5164 23.6069 22.5215C23.7368 22.5215 23.8719 22.5116 24.0018 22.5014L26.2418 22.2815H26.2569C26.3867 22.2715 26.5018 22.1965 26.5668 22.0866L27.0418 21.2616L28.2418 19.1815L28.9668 17.9264C28.9768 17.9116 28.9818 17.8915 28.9867 17.8764C29.0318 17.7764 29.0318 17.6616 28.9867 17.5665L28.0469 15.5015C27.6969 14.7315 27.1117 14.0866 26.3768 13.6665L24.3219 12.4716C24.0219 12.3015 23.7018 12.1816 23.3618 12.1165L16.7118 10.8816C16.547 10.8515 16.3769 10.9265 16.2919 11.0716L14.2919 14.5366C14.2069 14.6815 14.2269 14.8665 14.3368 14.9966L14.6419 15.3515Z" fill="#71D7F4"/>
        <path d="M36.6367 22.0615L33.5719 18.9315C33.2719 18.6514 32.8867 18.4914 32.4818 18.4715H30.2418C30.0219 18.4715 29.8418 18.6514 29.8418 18.8715V23.2715H29.0418V19.3914L27.2569 22.4865C27.0617 22.8215 26.7168 23.0465 26.3319 23.0764L26.2819 23.0814L26.2418 23.0865V23.2715H24.3268C24.3268 23.2715 23.1669 23.3014 22.9469 23.2715H17.4419V19.8514L14.832 16.8014L14.6419 16.5764V23.2715H14.2419C14.072 23.2715 13.9169 23.3814 13.8618 23.5414L13.1519 25.6715L13.0618 25.9414C13.022 26.0615 13.0419 26.1965 13.1169 26.3013C13.1919 26.4064 13.3118 26.4715 13.4419 26.4715H15.0419C15.0419 27.5763 15.9368 28.4714 17.0419 28.4714C18.147 28.4714 19.0419 27.5763 19.0419 26.4715H19.8419C19.8419 27.5763 20.7368 28.4714 21.8419 28.4714C22.9469 28.4714 23.8418 27.5763 23.8418 26.4715H31.0418C31.0418 27.5763 31.9367 28.4714 33.0418 28.4714C34.1468 28.4714 35.0418 27.5763 35.0418 26.4715H35.8418C36.3718 26.5314 36.8667 26.1865 36.9968 25.6715C37.0267 25.5414 37.0417 25.4064 37.0417 25.2715V23.0615C37.0417 22.6914 36.8968 22.3315 36.6367 22.0615ZM17.0419 27.6715C16.3769 27.6715 15.8419 27.1365 15.8419 26.4715C15.8419 25.8064 16.3769 25.2715 17.0419 25.2715C17.7069 25.2715 18.2419 25.8064 18.2419 26.4715C18.2419 27.1365 17.7069 27.6715 17.0419 27.6715ZM21.8419 27.6715C21.1768 27.6715 20.6419 27.1365 20.6419 26.4715C20.6419 25.8064 21.1768 25.2715 21.8419 25.2715C22.5069 25.2715 23.0419 25.8064 23.0419 26.4715C23.0419 27.1365 22.5069 27.6715 21.8419 27.6715ZM33.0418 27.6715C32.3767 27.6715 31.8418 27.1365 31.8418 26.4715C31.8418 25.8064 32.3767 25.2715 33.0418 25.2715C33.7068 25.2715 34.2418 25.8064 34.2418 26.4715C34.2418 27.1365 33.7068 27.6715 33.0418 27.6715ZM32.8068 22.0715C32.4969 22.0715 32.2418 21.8164 32.2418 21.5065V19.2715H32.4818C32.6719 19.2914 32.8568 19.3664 33.0017 19.4914L35.5267 22.0715H32.8068Z" fill="#71D7F4"/>
    </g>
    <defs>
        <filter id="filter0_d_0_1" x="0.166667" y="4.79167" width="49.6667" height="49.6667" filterUnits="userSpaceOnUse" color-interpolation-filters="sRGB">
            <feFlood flood-opacity="0" result="BackgroundImageFix"/>
            <feColorMatrix in="SourceAlpha" type="matrix" values="0 0 0 0 0 0 0 0 0 0 0 0 0 0 0 0 0 0 127 0" result="hardAlpha"/>
            <feOffset dy="9.625"/>
            <feGaussianBlur stdDeviation="6.41667"/>
            <feColorMatrix type="matrix" values="0 0 0 0 0 0 0 0 0 0.752672 0 0 0 0 0.966667 0 0 0 0.280895 0"/>
            <feBlend mode="normal" in2="BackgroundImageFix" result="effect1_dropShadow_0_1"/>
            <feBlend mode="normal" in="SourceGraphic" in2="effect1_dropShadow_0_1" result="shape"/>
        </filter>
        <clipPath id="clip0_0_1">
            <rect width="24" height="24" fill="white" transform="translate(13 8)"/>
        </clipPath>
    </defs>
</svg>
