<svg width="50" height="50" viewBox="0 0 50 56" fill="none" xmlns="http://www.w3.org/2000/svg">
    <circle cx="25.4324" cy="20.5781" r="20.4531" fill="#FEDAC2"/>
    <g clip-path="url(#clip0_0_1)" filter="url(#filter0_d_0_1)">
        <path d="M37.0208 21.4464C37.0208 22.1561 36.4448 22.7321 35.735 22.7321H14.3065C13.5968 22.7321 13.0208 22.1561 13.0208 21.4464C13.0208 20.7367 13.5968 20.1607 14.3065 20.1607H14.8833C15.4473 16.8144 17.6288 14.0219 20.597 12.6024L20.8593 15.2939C20.8936 15.647 21.2013 15.9127 21.5613 15.8716C21.9145 15.8373 22.1733 15.5236 22.139 15.1704L21.6925 10.5813C21.6745 10.3979 21.7328 10.2221 21.8562 10.0867C21.9796 9.94957 22.1485 9.875 22.3319 9.875H27.7088C27.8922 9.875 28.0619 9.94957 28.1853 10.0859C28.3088 10.2213 28.367 10.397 28.349 10.5804L27.9025 15.1696C27.8682 15.5227 28.127 15.8364 28.4802 15.8707C28.5016 15.8741 28.5222 15.875 28.5428 15.875C28.8693 15.875 29.1496 15.6264 29.1822 15.2939L29.4445 12.6024C32.4128 14.021 34.5942 16.8136 35.1582 20.1607H35.735C36.4448 20.1607 37.0208 20.7367 37.0208 21.4464Z" fill="#FD914C"/>
        <path d="M36.9711 30.6316C36.2708 32.045 34.818 33.0178 33.1337 33.0178C31.3774 33.0178 29.8714 31.9584 29.2097 30.4464H20.832C20.1702 31.9584 18.6642 33.0178 16.908 33.0178C15.2245 33.0178 13.7708 32.045 13.0705 30.6316C13.0285 30.5484 13.0945 30.4464 13.188 30.4464H16.908L17.7651 28.7321L16.908 27.0178H13.188C13.0945 27.0178 13.0294 26.9158 13.0705 26.8327C13.7708 25.4201 15.2237 24.4464 16.908 24.4464C18.6642 24.4464 20.1702 25.5058 20.832 27.0178H29.2097C29.8714 25.5058 31.3774 24.4464 33.1337 24.4464C34.8171 24.4464 36.2708 25.4201 36.9711 26.8327C37.0131 26.9158 36.9471 27.0178 36.8537 27.0178H33.1337L32.2765 28.7321L33.1337 30.4464H36.8537C36.9471 30.4464 37.0131 30.5484 36.9711 30.6316Z" fill="#FD914C"/>
    </g>
    <defs>
        <filter id="filter0_d_0_1" x="0.166667" y="5.79167" width="49.6667" height="49.6667" filterUnits="userSpaceOnUse" color-interpolation-filters="sRGB">
            <feFlood flood-opacity="0" result="BackgroundImageFix"/>
            <feColorMatrix in="SourceAlpha" type="matrix" values="0 0 0 0 0 0 0 0 0 0 0 0 0 0 0 0 0 0 127 0" result="hardAlpha"/>
            <feOffset dy="9.625"/>
            <feGaussianBlur stdDeviation="6.41667"/>
            <feColorMatrix type="matrix" values="0 0 0 0 0.854902 0 0 0 0 0.505882 0 0 0 0 0.027451 0 0 0 0.280895 0"/>
            <feBlend mode="normal" in2="BackgroundImageFix" result="effect1_dropShadow_0_1"/>
            <feBlend mode="normal" in="SourceGraphic" in2="effect1_dropShadow_0_1" result="shape"/>
        </filter>
        <clipPath id="clip0_0_1">
            <rect width="24" height="24" fill="white" transform="translate(13 9)"/>
        </clipPath>
    </defs>
</svg>
