<svg width="34" height="34" viewBox="0 0 34 34" fill="none" xmlns="http://www.w3.org/2000/svg">
    <path fill-rule="evenodd" clip-rule="evenodd" d="M3.29647 7.98723C2.83325 8.89635 2.83325 10.0865 2.83325 12.4667V21.5334C2.83325 23.9136 2.83325 25.1037 3.29647 26.0128C3.70394 26.8125 4.3541 27.4627 5.15379 27.8701C6.06292 28.3334 7.25303 28.3334 9.63325 28.3334H24.3666C26.7468 28.3334 27.9369 28.3334 28.846 27.8701C29.6457 27.4627 30.2959 26.8125 30.7034 26.0128C31.1666 25.1037 31.1666 23.9136 31.1666 21.5334V12.4667C31.1666 10.0865 31.1666 8.89635 30.7034 7.98723C30.2959 7.18754 29.6457 6.53737 28.846 6.12991C27.9369 5.66669 26.7468 5.66669 24.3666 5.66669H9.63325C7.25303 5.66669 6.06292 5.66669 5.15379 6.12991C4.3541 6.53737 3.70394 7.18754 3.29647 7.98723ZM10.718 11.5818C10.0728 11.1392 9.19097 11.3034 8.74838 11.9486C8.30578 12.5938 8.47001 13.4756 9.11519 13.9182L14.5957 17.6779C16.0445 18.6717 17.9554 18.6717 19.4041 17.6779L24.8846 13.9182C25.5298 13.4756 25.6941 12.5938 25.2515 11.9486C24.8089 11.3034 23.927 11.1392 23.2819 11.5818L17.8013 15.3415C17.3184 15.6727 16.6814 15.6727 16.1985 15.3415L10.718 11.5818Z" fill="#9B51E0"/>
</svg>
