<svg width="50" height="50" viewBox="0 0 41 41" fill="none" xmlns="http://www.w3.org/2000/svg">
    <circle cx="20.4531" cy="20.4531" r="20.4531" fill="#FAC7C7"/>
    <path d="M28.312 12.5C28.757 12.5 29.192 12.3681 29.562 12.1208C29.932 11.8736 30.2204 11.5222 30.3907 11.1111C30.561 10.6999 30.6056 10.2475 30.5188 9.81107C30.432 9.37461 30.2177 8.97369 29.903 8.65902C29.5883 8.34435 29.1874 8.13006 28.751 8.04324C28.3145 7.95642 27.8621 8.00097 27.451 8.17127C27.0398 8.34157 26.6884 8.62995 26.4412 8.99996C26.194 9.36998 26.062 9.80499 26.062 10.25C26.0627 10.8465 26.2999 11.4184 26.7218 11.8402C27.1436 12.2621 27.7155 12.4993 28.312 12.5Z" fill="#F15757"/>
    <path d="M13.6875 12.5C14.1325 12.5 14.5675 12.3681 14.9375 12.1208C15.3075 11.8736 15.5959 11.5222 15.7662 11.1111C15.9365 10.6999 15.9811 10.2475 15.8943 9.81108C15.8075 9.37462 15.5932 8.9737 15.2785 8.65903C14.9638 8.34435 14.5629 8.13006 14.1265 8.04324C13.69 7.95642 13.2376 8.00097 12.8265 8.17127C12.4153 8.34156 12.0639 8.62995 11.8167 8.99996C11.5695 9.36997 11.4375 9.80499 11.4375 10.25C11.4382 10.8465 11.6754 11.4184 12.0972 11.8402C12.519 12.262 13.0909 12.4993 13.6875 12.5Z" fill="#F15757"/>
    <path d="M32.9995 15.7813V15.0313C32.9992 14.8654 32.9438 14.7043 32.842 14.5733C32.7402 14.4424 32.5977 14.349 32.437 14.3078V13.625C32.4363 13.1846 32.2807 12.7585 31.9975 12.4212C31.7142 12.084 31.3214 11.8571 30.8878 11.7803C30.7271 12.0498 30.5253 12.2927 30.2898 12.5H30.5621C30.7098 12.5 30.8561 12.5291 30.9926 12.5857C31.1291 12.6422 31.2531 12.7251 31.3576 12.8295C31.462 12.934 31.5449 13.058 31.6014 13.1945C31.658 13.331 31.6871 13.4773 31.6871 13.625V14.2813H25.1247V13.625C25.1239 13.1846 24.9683 12.7585 24.6851 12.4213C24.4019 12.084 24.0091 11.8571 23.5754 11.7803C23.4147 12.0498 23.213 12.2927 22.9774 12.5H23.2497C23.3974 12.5 23.5437 12.5291 23.6802 12.5857C23.8167 12.6422 23.9407 12.7251 24.0452 12.8295C24.1497 12.934 24.2325 13.058 24.2891 13.1945C24.3456 13.331 24.3747 13.4773 24.3747 13.625V14.2813H17.6248V13.625C17.6248 13.4773 17.6539 13.331 17.7105 13.1945C17.767 13.058 17.8499 12.934 17.9543 12.8295C18.0588 12.7251 18.1828 12.6422 18.3193 12.5857C18.4558 12.5291 18.6021 12.5 18.7498 12.5H19.0221C18.7866 12.2927 18.5848 12.0498 18.4241 11.7803C17.9905 11.8571 17.5976 12.084 17.3144 12.4212C17.0312 12.7585 16.8756 13.1846 16.8748 13.625V14.2813H10.3125V13.625C10.3125 13.4773 10.3416 13.331 10.3981 13.1945C10.4546 13.058 10.5375 12.934 10.642 12.8295C10.7464 12.7251 10.8704 12.6422 11.0069 12.5857C11.1434 12.5291 11.2897 12.5 11.4374 12.5H11.7098C11.4742 12.2927 11.2725 12.0498 11.1118 11.7803C10.6781 11.8571 10.2853 12.084 10.0021 12.4212C9.71883 12.7585 9.56322 13.1846 9.56249 13.625V14.3078C9.4018 14.349 9.25935 14.4424 9.15753 14.5733C9.05571 14.7043 9.0003 14.8654 9 15.0313V15.7813C9.00031 15.8282 9.00503 15.875 9.01408 15.921C8.98913 16.0503 8.99865 16.1838 9.04168 16.3082C9.08471 16.4326 9.15973 16.5434 9.25921 16.6296L18.7498 24.8428V31.25C18.7498 31.4489 18.8288 31.6397 18.9695 31.7804C19.1101 31.921 19.3009 32 19.4998 32H22.4997C22.5982 32 22.6957 31.9806 22.7867 31.9429C22.8777 31.9052 22.9604 31.85 23.0301 31.7804C23.0997 31.7107 23.1549 31.628 23.1926 31.537C23.2303 31.446 23.2497 31.3485 23.2497 31.25V24.8428L32.7292 16.6393C32.814 16.569 32.8822 16.4809 32.9291 16.3812C32.9759 16.2815 33.0001 16.1727 33 16.0625C32.9995 16.0157 32.9946 15.9689 32.9853 15.923C32.9945 15.8763 32.9993 15.8289 32.9995 15.7813ZM32.2495 15.7813H9.74998V15.0313H32.2495V15.7813Z" fill="#F15757"/>
    <path d="M20.9997 12.5C21.4447 12.5 21.8797 12.3681 22.2498 12.1208C22.6198 11.8736 22.9082 11.5222 23.0785 11.1111C23.2488 10.6999 23.2933 10.2475 23.2065 9.81108C23.1197 9.37462 22.9054 8.9737 22.5908 8.65903C22.2761 8.34436 21.8752 8.13006 21.4387 8.04324C21.0023 7.95642 20.5499 8.00097 20.1387 8.17127C19.7276 8.34156 19.3762 8.62995 19.129 8.99996C18.8817 9.36997 18.7498 9.80499 18.7498 10.25C18.7504 10.8465 18.9877 11.4184 19.4095 11.8402C19.8313 12.262 20.4032 12.4993 20.9997 12.5Z" fill="#F15757"/>
    <path d="M28.6872 32C29.5401 32 30.3739 31.7471 31.0831 31.2733C31.7923 30.7994 32.345 30.1259 32.6715 29.3379C32.9979 28.5499 33.0833 27.6828 32.9169 26.8462C32.7505 26.0097 32.3398 25.2413 31.7367 24.6381C31.1336 24.035 30.3652 23.6243 29.5286 23.4579C28.6921 23.2915 27.825 23.3769 27.037 23.7033C26.2489 24.0297 25.5754 24.5824 25.1015 25.2916C24.6277 26.0008 24.3748 26.8346 24.3748 27.6875C24.376 28.8308 24.8308 29.927 25.6392 30.7355C26.4477 31.5439 27.5438 31.9987 28.6872 32ZM26.8479 26.8791C26.8433 26.5716 26.9301 26.2696 27.0972 26.0114C27.2643 25.7532 27.5042 25.5504 27.7866 25.4286C27.8498 25.2333 27.973 25.063 28.1387 24.9419C28.3044 24.8208 28.5042 24.7551 28.7094 24.7542C28.9146 24.7534 29.1149 24.8173 29.2817 24.937C29.4484 25.0567 29.5731 25.2259 29.638 25.4206C29.9514 25.5384 30.2239 25.7448 30.4221 26.0147C30.4261 26.0203 30.43 26.0259 30.4338 26.0316C30.5475 26.2006 30.6083 26.3995 30.6086 26.6032C30.6087 26.742 30.5798 26.8793 30.5239 27.0064C30.4681 27.1334 30.3864 27.2475 30.2841 27.3414C30.5486 27.6404 30.6889 28.0291 30.6764 28.4282C30.6849 28.7622 30.5889 29.0906 30.4016 29.3673C30.2144 29.6441 29.9453 29.8554 29.632 29.9716C29.5643 30.1628 29.4387 30.328 29.2727 30.4444C29.1066 30.5607 28.9084 30.6224 28.7057 30.6207C28.5029 30.6191 28.3057 30.5542 28.1416 30.4352C27.9775 30.3162 27.8545 30.1489 27.79 29.9567C27.405 29.8056 27.0764 29.5386 26.8499 29.1925C26.7122 28.9705 26.6657 28.7038 26.7202 28.4482C26.7748 28.1927 26.9261 27.9682 27.1426 27.8218C26.9426 27.5489 26.8389 27.2173 26.8479 26.8791Z" fill="#F15757"/>
    <path d="M28.4885 29.3722V29.6432C28.4882 29.673 28.4937 29.7025 28.5049 29.7301C28.5161 29.7577 28.5326 29.7828 28.5535 29.804C28.5744 29.8252 28.5994 29.842 28.6268 29.8534C28.6543 29.8649 28.6838 29.8708 28.7135 29.8708C28.7433 29.8708 28.7728 29.8649 28.8002 29.8534C28.8277 29.842 28.8526 29.8252 28.8735 29.804C28.8945 29.7828 28.911 29.7577 28.9222 29.7301C28.9333 29.7025 28.9389 29.673 28.9386 29.6432V29.3722C29.5873 29.3092 29.9262 28.9606 29.9262 28.4282C29.9262 27.2179 28.1593 27.5133 28.1593 26.8791C28.1593 26.6854 28.3094 26.4967 28.7112 26.4967C28.9612 26.4944 29.203 26.586 29.3888 26.7532C29.4424 26.8136 29.5167 26.8517 29.597 26.8598C29.6657 26.8603 29.7318 26.8336 29.7808 26.7855C29.8298 26.7374 29.8577 26.6718 29.8585 26.6031C29.858 26.5478 29.8411 26.4939 29.81 26.4482C29.7017 26.3205 29.5687 26.216 29.4189 26.1411C29.2691 26.0662 29.1057 26.0225 28.9386 26.0125V25.7318C28.9389 25.7021 28.9333 25.6725 28.9222 25.6449C28.911 25.6173 28.8945 25.5922 28.8736 25.5711C28.8526 25.5499 28.8277 25.5331 28.8002 25.5216C28.7728 25.5102 28.7433 25.5043 28.7135 25.5043C28.6838 25.5043 28.6543 25.5102 28.6268 25.5216C28.5994 25.5331 28.5744 25.5499 28.5535 25.5711C28.5326 25.5922 28.5161 25.6173 28.5049 25.6449C28.4937 25.6725 28.4882 25.7021 28.4885 25.7318V26.0078C27.8689 26.0755 27.5977 26.4482 27.5977 26.8791C27.5977 28.0457 29.3647 27.7214 29.3647 28.4282C29.3647 28.7283 29.1517 28.8736 28.7112 28.8736C28.5608 28.8692 28.4129 28.8344 28.2764 28.7711C28.1399 28.7079 28.0177 28.6175 27.9172 28.5056C27.8916 28.4735 27.8592 28.4473 27.8225 28.4289C27.7857 28.4106 27.7454 28.4004 27.7043 28.3991C27.6583 28.3998 27.6133 28.4127 27.5739 28.4364C27.5345 28.4602 27.502 28.4939 27.4799 28.5343C27.4578 28.5746 27.4467 28.6201 27.4478 28.6661C27.449 28.7121 27.4623 28.7569 27.4864 28.7961C27.6023 28.9585 27.7517 29.0939 27.9247 29.1933C28.0976 29.2927 28.2899 29.3537 28.4885 29.3722Z" fill="#F15757"/>
    <path d="M13.114 29.3722V29.6432C13.1137 29.673 13.1192 29.7025 13.1304 29.7301C13.1416 29.7577 13.1581 29.7828 13.179 29.804C13.1999 29.8252 13.2249 29.842 13.2523 29.8534C13.2798 29.8649 13.3093 29.8708 13.339 29.8708C13.3688 29.8708 13.3983 29.8649 13.4257 29.8534C13.4532 29.842 13.4781 29.8252 13.499 29.804C13.52 29.7828 13.5365 29.7577 13.5477 29.7301C13.5588 29.7025 13.5644 29.673 13.5641 29.6432V29.3722C14.2128 29.3092 14.5517 28.9606 14.5517 28.4282C14.5517 27.2179 12.7848 27.5133 12.7848 26.8791C12.7848 26.6855 12.9349 26.4967 13.3366 26.4967C13.5867 26.4944 13.8284 26.586 14.0143 26.7532C14.0678 26.8136 14.1422 26.8517 14.2225 26.8598C14.2912 26.8603 14.3573 26.8336 14.4063 26.7855C14.4553 26.7374 14.4832 26.6718 14.484 26.6031C14.4835 26.5478 14.4666 26.4939 14.4354 26.4482C14.3272 26.3205 14.1942 26.216 14.0444 26.1411C13.8946 26.0662 13.7312 26.0225 13.5641 26.0125V25.7318C13.5644 25.7021 13.5588 25.6725 13.5477 25.6449C13.5365 25.6174 13.52 25.5922 13.499 25.5711C13.4781 25.5499 13.4532 25.5331 13.4257 25.5216C13.3983 25.5102 13.3688 25.5043 13.339 25.5043C13.3093 25.5043 13.2798 25.5102 13.2523 25.5216C13.2249 25.5331 13.1999 25.5499 13.179 25.5711C13.1581 25.5922 13.1416 25.6174 13.1304 25.6449C13.1192 25.6725 13.1137 25.7021 13.114 25.7318V26.0078C12.4944 26.0755 12.2232 26.4482 12.2232 26.8791C12.2232 28.0457 13.9901 27.7214 13.9901 28.4282C13.9901 28.7283 13.7772 28.8736 13.3366 28.8736C13.1863 28.8692 13.0384 28.8344 12.9019 28.7711C12.7654 28.7079 12.6432 28.6175 12.5427 28.5056C12.5171 28.4735 12.4847 28.4473 12.448 28.4289C12.4112 28.4106 12.3709 28.4004 12.3298 28.3991C12.2838 28.3998 12.2388 28.4127 12.1994 28.4364C12.1599 28.4602 12.1275 28.4939 12.1054 28.5343C12.0832 28.5746 12.0722 28.6201 12.0733 28.6661C12.0745 28.7121 12.0878 28.7569 12.1119 28.7961C12.2278 28.9585 12.3772 29.0939 12.5502 29.1934C12.7231 29.2928 12.9154 29.3537 13.114 29.3722Z" fill="#F15757"/>
    <path d="M13.3124 32C14.1653 32 14.9991 31.7471 15.7083 31.2733C16.4175 30.7994 16.9703 30.1259 17.2967 29.3379C17.6231 28.5499 17.7085 27.6828 17.5421 26.8462C17.3758 26.0097 16.965 25.2413 16.3619 24.6381C15.7588 24.035 14.9904 23.6243 14.1539 23.4579C13.3173 23.2915 12.4502 23.3769 11.6622 23.7033C10.8742 24.0297 10.2007 24.5824 9.72679 25.2916C9.25293 26.0008 9 26.8346 9 27.6875C9.00128 28.8308 9.45603 29.927 10.2645 30.7355C11.0729 31.5439 12.1691 31.9987 13.3124 32ZM11.4731 26.8791C11.4686 26.5716 11.5553 26.2696 11.7224 26.0114C11.8895 25.7532 12.1294 25.5504 12.4118 25.4286C12.475 25.2333 12.5983 25.063 12.764 24.9419C12.9297 24.8208 13.1294 24.7551 13.3346 24.7543C13.5399 24.7534 13.7402 24.8173 13.9069 24.937C14.0737 25.0567 14.1984 25.2259 14.2632 25.4206C14.5767 25.5384 14.8491 25.7448 15.0473 26.0147C15.0513 26.0203 15.0552 26.0259 15.059 26.0316C15.1727 26.2006 15.2336 26.3995 15.2339 26.6032C15.2339 26.742 15.205 26.8793 15.1492 27.0064C15.0933 27.1334 15.0116 27.2475 14.9094 27.3414C15.1738 27.6404 15.3142 28.0291 15.3016 28.4282C15.3102 28.7622 15.2141 29.0906 15.0268 29.3673C14.8396 29.6441 14.5705 29.8554 14.2572 29.9716C14.1896 30.1628 14.064 30.328 13.8979 30.4444C13.7319 30.5607 13.5337 30.6224 13.3309 30.6207C13.1282 30.6191 12.931 30.5542 12.7668 30.4352C12.6027 30.3162 12.4798 30.1489 12.4152 29.9567C12.0302 29.8056 11.7016 29.5386 11.4751 29.1925C11.3374 28.9705 11.2909 28.7038 11.3455 28.4482C11.4 28.1927 11.5514 27.9682 11.7678 27.8218C11.5678 27.5489 11.4641 27.2173 11.4731 26.8791Z" fill="#F15757"/>
    <path d="M26.0622 12.5H26.3345C26.0995 12.2931 25.8981 12.0508 25.7375 11.7819C25.5706 11.811 25.4085 11.8626 25.2554 11.9351C25.4189 12.1287 25.5535 12.345 25.6551 12.5772C25.7848 12.5263 25.9229 12.5002 26.0622 12.5Z" fill="#F15757"/>
    <path d="M15.665 12.5H15.9374C16.0767 12.5002 16.2148 12.5263 16.3445 12.5772C16.4461 12.345 16.5807 12.1287 16.7442 11.9351C16.5911 11.8626 16.4289 11.811 16.2621 11.7819C16.1015 12.0508 15.9001 12.2931 15.665 12.5Z" fill="#F15757"/>
</svg>
