<svg width="20" height="20" viewBox="0 0 20 20" fill="none" xmlns="http://www.w3.org/2000/svg">
    <path d="M7.24132 18.2676C7.43177 18.2676 7.58616 18.0737 7.58616 17.8345C7.58616 17.5953 7.43177 17.4014 7.24132 17.4014C7.05087 17.4014 6.89648 17.5953 6.89648 17.8345C6.89648 18.0737 7.05087 18.2676 7.24132 18.2676Z" fill="white"/>
    <path d="M4.48278 18.2676C4.67323 18.2676 4.82762 18.0737 4.82762 17.8345C4.82762 17.5953 4.67323 17.4014 4.48278 17.4014C4.29233 17.4014 4.13794 17.5953 4.13794 17.8345C4.13794 18.0737 4.29233 18.2676 4.48278 18.2676Z" fill="white"/>
    <path d="M1.72413 19.9999H9.99998C10.9522 19.9999 11.7241 19.0304 11.7241 17.8344C11.7241 16.6384 10.9522 15.6688 9.99998 15.6688H1.72413C0.771925 15.6688 0 16.6384 0 17.8344C0 19.0304 0.771925 19.9999 1.72413 19.9999ZM9.99998 16.535C10.5713 16.535 11.0345 17.1168 11.0345 17.8344C11.0345 18.552 10.5713 19.1337 9.99998 19.1337C9.42864 19.1337 8.9655 18.552 8.9655 17.8344C8.9655 17.1168 9.42868 16.535 9.99998 16.535ZM7.24138 16.535C7.81272 16.535 8.27586 17.1168 8.27586 17.8344C8.27586 18.552 7.81272 19.1337 7.24138 19.1337C6.67003 19.1337 6.20689 18.552 6.20689 17.8344C6.20689 17.1168 6.67003 16.535 7.24138 16.535ZM4.48277 16.535C5.05411 16.535 5.51725 17.1168 5.51725 17.8344C5.51725 18.552 5.05411 19.1337 4.48277 19.1337C3.91143 19.1337 3.44828 18.552 3.44828 17.8344C3.44828 17.1168 3.91143 16.535 4.48277 16.535ZM1.72413 16.535C2.29547 16.535 2.75861 17.1168 2.75861 17.8344C2.75861 18.552 2.29547 19.1337 1.72413 19.1337C1.15279 19.1337 0.689644 18.552 0.689644 17.8344C0.689644 17.1168 1.15282 16.535 1.72413 16.535Z" fill="white"/>
    <path d="M8.52641 2.24231H5.86193C5.67148 2.24231 5.51709 2.43623 5.51709 2.67544V7.8728H7.58605V7.00659C7.58605 6.76738 7.74045 6.57346 7.93089 6.57346C8.12134 6.57346 8.27573 6.76738 8.27573 7.00659V7.8728H8.96538V7.00659C8.96538 6.76738 9.11977 6.57346 9.31021 6.57346C9.50066 6.57346 9.65505 6.76738 9.65505 7.00659V7.8728H10.8378L10.3792 6.64318L10.3768 6.63886V6.63194L8.83884 2.49223C8.78179 2.34022 8.6602 2.24297 8.52641 2.24231ZM6.30781 3.66857L6.65265 3.23544C6.78795 3.07131 7.00303 3.07366 7.13604 3.24072C7.26904 3.40777 7.27091 3.67792 7.14024 3.84786L6.7954 4.28099C6.6601 4.44512 6.44501 4.44277 6.31201 4.27571C6.17898 4.10862 6.17711 3.83851 6.30781 3.66857ZM8.51952 4.28099L6.7954 6.44654C6.6601 6.61067 6.44501 6.60832 6.31201 6.44127C6.17901 6.27422 6.17714 6.00406 6.30781 5.83412L8.03194 3.66857C8.16724 3.50444 8.38232 3.50679 8.51532 3.67384C8.64832 3.8409 8.6502 4.11101 8.51952 4.28099Z" fill="white"/>
    <path fill-rule="evenodd" clip-rule="evenodd" d="M17.403 0.45915C17.3169 0.256164 17.1702 0.10448 16.995 0.0375188C16.8198 -0.0294427 16.6307 -0.00611952 16.4692 0.102255L10.2578 4.26322L10.844 5.83717L17.1199 1.63248C17.4555 1.40613 17.5821 0.88144 17.403 0.45915Z" fill="white"/>
    <path fill-rule="evenodd" clip-rule="evenodd" d="M2.06885 13.9364H9.65506V14.8026H2.06885V13.9364Z" fill="white"/>
    <path d="M1.72423 18.2676C1.91468 18.2676 2.06907 18.0737 2.06907 17.8345C2.06907 17.5953 1.91468 17.4014 1.72423 17.4014C1.53378 17.4014 1.37939 17.5953 1.37939 17.8345C1.37939 18.0737 1.53378 18.2676 1.72423 18.2676Z" fill="white"/>
    <path d="M10.0001 18.2676C10.1906 18.2676 10.345 18.0737 10.345 17.8345C10.345 17.5953 10.1906 17.4014 10.0001 17.4014C9.80966 17.4014 9.65527 17.5953 9.65527 17.8345C9.65527 18.0737 9.80966 18.2676 10.0001 18.2676Z" fill="white"/>
    <path fill-rule="evenodd" clip-rule="evenodd" d="M16.5518 16.4918C16.9614 16.3917 17.2414 16.1288 17.2414 15.8854C17.2414 15.642 16.9614 15.3796 16.5518 15.2791V16.4918Z" fill="white"/>
    <path fill-rule="evenodd" clip-rule="evenodd" d="M15.1724 13.7199C15.1724 13.9628 15.4524 14.2257 15.862 14.3262V13.1135C15.4524 13.214 15.1724 13.4769 15.1724 13.7199Z" fill="white"/>
    <path fill-rule="evenodd" clip-rule="evenodd" d="M10 10.4714H11.7241V11.3376H10V10.4714Z" fill="white"/>
    <path d="M16.207 10.9045C14.493 10.9045 13.1035 12.6497 13.1035 14.8026C13.1035 16.9554 14.493 18.7006 16.207 18.7006C17.921 18.7006 19.3104 16.9554 19.3104 14.8026C19.3085 12.6507 17.9202 10.9069 16.207 10.9045ZM17.9311 15.8854C17.9311 16.6312 17.348 17.2345 16.5518 17.3714V17.8344C16.5518 18.0736 16.3974 18.2675 16.207 18.2675C16.0165 18.2675 15.8621 18.0736 15.8621 17.8344V17.3714C15.0659 17.2345 14.4828 16.6312 14.4828 15.8854C14.4828 15.6462 14.6372 15.4522 14.8276 15.4522C15.0181 15.4522 15.1725 15.6462 15.1725 15.8854C15.1725 16.1284 15.4525 16.3912 15.8621 16.4917V15.2058C15.0659 15.069 14.4828 14.4656 14.4828 13.7198C14.4828 12.974 15.0659 12.3706 15.8621 12.2338V11.7708C15.8621 11.5316 16.0165 11.3377 16.207 11.3377C16.3974 11.3377 16.5518 11.5316 16.5518 11.7708V12.2338C17.348 12.3706 17.9311 12.974 17.9311 13.7198C17.9311 13.959 17.7767 14.1529 17.5863 14.1529C17.3958 14.1529 17.2414 13.959 17.2414 13.7198C17.2414 13.4768 16.9614 13.214 16.5518 13.1134V14.3989C17.348 14.5362 17.9311 15.1396 17.9311 15.8854Z" fill="white"/>
    <path fill-rule="evenodd" clip-rule="evenodd" d="M11.3792 13.0702C11.5697 13.0702 11.7241 12.8762 11.7241 12.637V12.2039H9.99994C9.61904 12.2039 9.31029 11.8161 9.31029 11.3377V10.4715C9.31029 9.99307 9.61908 9.60527 9.99994 9.60527H11.7241V9.17214C11.7241 8.93293 11.5697 8.73901 11.3792 8.73901H4.48269V10.0384C4.48269 10.2776 4.3283 10.4715 4.13785 10.4715C3.9474 10.4715 3.79301 10.2776 3.79301 10.0384V8.73901H3.10337V10.0384C3.10337 10.2776 2.94898 10.4715 2.75853 10.4715C2.56808 10.4715 2.41369 10.2776 2.41369 10.0384V8.73901H1.72405V10.0384C1.72405 10.2776 1.56966 10.4715 1.37921 10.4715C1.18876 10.4715 1.03437 10.2776 1.03437 10.0384V8.73901H0.689565C0.499118 8.73901 0.344727 8.93293 0.344727 9.17214V12.637C0.344727 12.8762 0.499118 13.0702 0.689565 13.0702H11.3792Z" fill="white"/>
    <path fill-rule="evenodd" clip-rule="evenodd" d="M16.2069 10.0383C16.3973 10.0383 16.5517 9.84438 16.5517 9.60518V2.99585L15.8621 3.45494V9.60514C15.8621 9.84438 16.0164 10.0383 16.2069 10.0383Z" fill="white"/>
    <path fill-rule="evenodd" clip-rule="evenodd" d="M17.5863 19.9999C17.7767 19.9999 17.9311 19.806 17.9311 19.5668C17.931 19.3953 17.8497 19.2403 17.7242 19.1727C17.6812 19.1465 17.634 19.1332 17.5863 19.1337H12.1794C12.0584 19.4578 11.8913 19.7514 11.6863 19.9999L17.5863 19.9999Z" fill="white"/>
    <path fill-rule="evenodd" clip-rule="evenodd" d="M19.6551 19.1338H18.9654C18.775 19.1338 18.6206 19.3277 18.6206 19.5669C18.6206 19.8061 18.775 20 18.9654 20H19.6551C19.8455 20 19.9999 19.8061 19.9999 19.5669C19.9999 19.3277 19.8455 19.1338 19.6551 19.1338Z" fill="white"/>
</svg>
