<svg width="20" height="20" viewBox="0 0 20 20" fill="none" xmlns="http://www.w3.org/2000/svg">
    <path d="M1.71991 9.93129V1.46363H9.35068C9.76026 0.901289 10.2844 0.40543 10.8953 0H0V20H14.211V9.93129H1.71991ZM3.14572 18.5298H1.76866V17.3579H3.14572V18.5298ZM3.14572 15.5429H1.76866V14.371H3.14572V15.5429ZM3.14572 12.556H1.76866V11.3841H3.14572V12.556ZM6.24274 18.5298H4.86567V17.3579H6.24274V18.5298ZM6.24274 15.5429H4.86567V14.371H6.24274V15.5429ZM6.24274 12.556H4.86567V11.3841H6.24274V12.556ZM9.33966 18.5298H7.9626V17.3579H9.33966V18.5298ZM9.33966 15.5429H7.9626V14.371H9.33966V15.5429ZM9.33966 12.556H7.9626V11.3841H9.33966V12.556ZM12.4366 18.5298H11.0596V17.3579H12.4366V18.5298ZM12.4366 15.5429H11.0596V14.371H12.4366V15.5429ZM12.4366 12.556H11.0596V11.3841H12.4366V12.556Z" fill="white"/>
    <path d="M20 3.7938C19.6927 1.84657 17.8763 0.30083 15.5881 0.0393066V3.7938H20Z" fill="white"/>
    <path d="M15.5881 4.96558V8.72003C17.8763 8.45854 19.6927 6.91276 20 4.96558H15.5881Z" fill="white"/>
    <path d="M3.09692 2.6355V8.7594H10.8953C9.36302 7.74265 8.37581 6.15749 8.37581 4.37972C8.37581 3.77062 8.49203 3.18425 8.70598 2.6355H3.09692Z" fill="white"/>
    <path d="M9.75244 4.37974C9.75244 6.59603 11.697 8.43286 14.2105 8.72013V0.0393066C11.697 0.326572 9.75244 2.16341 9.75244 4.37974Z" fill="white"/>
</svg>
