<svg width="22" height="23" viewBox="0 0 22 23" fill="none" xmlns="http://www.w3.org/2000/svg">
    <path d="M17.8956 1H18.2405C20.0342 1.22918 20.931 3.59738 19.8962 5.27804L16.5159 10.9312" stroke="white" stroke-miterlimit="10" stroke-linecap="round" stroke-linejoin="round"/>
    <path d="M17.5507 1H6.16797" stroke="white" stroke-miterlimit="10" stroke-linecap="round" stroke-linejoin="round"/>
    <path d="M7.40972 6.5769L1.40792 16.5081C0.442111 18.1887 1.26995 20.6333 3.06359 20.8625H3.40852H13.6875" stroke="white" stroke-miterlimit="10" stroke-linecap="round" stroke-linejoin="round"/>
    <path d="M5.82317 1C4.30547 1 3.06372 2.37508 3.06372 4.05574C3.06372 4.43771 3.20169 4.81968 3.33967 5.12525C3.75358 5.88919 4.58142 6.34755 5.40925 6.34755H16.1711C15.4812 6.34755 14.0325 4.20853 15.5502 2.1459C16.0331 1.45836 16.792 1 17.5508 1C19.0685 1 20.3103 2.37508 20.3103 4.05574" stroke="white" stroke-miterlimit="10" stroke-linecap="round" stroke-linejoin="round"/>
    <path d="M8.58252 10.1674H12.0318" stroke="white" stroke-miterlimit="10" stroke-linecap="round" stroke-linejoin="round"/>
    <path d="M7.20264 12.459H9.27222" stroke="white" stroke-miterlimit="10" stroke-linecap="round" stroke-linejoin="round"/>
    <path d="M16.1708 21.6264C18.8378 21.6264 20.9999 19.2322 20.9999 16.2788C20.9999 13.3255 18.8378 10.9313 16.1708 10.9313C13.5038 10.9313 11.3418 13.3255 11.3418 16.2788C11.3418 19.2322 13.5038 21.6264 16.1708 21.6264Z" stroke="white" stroke-miterlimit="10" stroke-linecap="round" stroke-linejoin="round"/>
    <path d="M16.1709 10.9313V18.5706" stroke="white" stroke-miterlimit="10" stroke-linecap="round" stroke-linejoin="round"/>
    <path d="M14.1016 16.2787L16.1711 18.5705L18.2407 16.2787" stroke="white" stroke-miterlimit="10" stroke-linecap="round" stroke-linejoin="round"/>
</svg>
