<svg width="16" height="18" viewBox="0 0 16 18" fill="none" xmlns="http://www.w3.org/2000/svg">
    <path d="M3.3791 17.1294L3.5336 16.6538L3.3791 17.1294ZM0.703931 14.4542L1.17946 14.2997L0.703931 14.4542ZM15.2961 14.4542L14.8205 14.2997L15.2961 14.4542ZM12.6209 17.1294L12.4664 16.6538L12.6209 17.1294ZM12.6209 5.87056L12.4664 6.34609L12.6209 5.87056ZM15.2961 8.54572L14.8205 8.70023L15.2961 8.54572ZM3.3791 5.87056L3.5336 6.34609L3.3791 5.87056ZM0.703931 8.54572L1.17946 8.70023L0.703931 8.54572ZM8.5 9.83329C8.5 9.55715 8.27614 9.33329 8 9.33329C7.72386 9.33329 7.5 9.55715 7.5 9.83329H8H8.5ZM7.5 13.1666C7.5 13.4428 7.72386 13.6666 8 13.6666C8.27614 13.6666 8.5 13.4428 8.5 13.1666H8H7.5ZM6.33333 5.66663V6.16663H9.66667V5.66663V5.16663H6.33333V5.66663ZM9.66667 17.3333V16.8333H6.33333V17.3333V17.8333H9.66667V17.3333ZM6.33333 17.3333V16.8333C4.74335 16.8333 4.06694 16.8271 3.5336 16.6538L3.3791 17.1294L3.22459 17.6049C3.94652 17.8395 4.82118 17.8333 6.33333 17.8333V17.3333ZM0.5 11.5H0C0 13.0121 -0.00616866 13.8868 0.228403 14.6087L0.703931 14.4542L1.17946 14.2997C1.00617 13.7664 1 13.0899 1 11.5H0.5ZM3.3791 17.1294L3.5336 16.6538C2.41733 16.2911 1.54216 15.416 1.17946 14.2997L0.703931 14.4542L0.228403 14.6087C0.69002 16.0294 1.80388 17.1433 3.22459 17.6049L3.3791 17.1294ZM15.5 11.5H15C15 13.0899 14.9938 13.7664 14.8205 14.2997L15.2961 14.4542L15.7716 14.6087C16.0062 13.8868 16 13.0121 16 11.5H15.5ZM9.66667 17.3333V17.8333C11.1788 17.8333 12.0535 17.8395 12.7754 17.6049L12.6209 17.1294L12.4664 16.6538C11.9331 16.8271 11.2567 16.8333 9.66667 16.8333V17.3333ZM15.2961 14.4542L14.8205 14.2997C14.4578 15.416 13.5827 16.2911 12.4664 16.6538L12.6209 17.1294L12.7754 17.6049C14.1961 17.1433 15.31 16.0294 15.7716 14.6087L15.2961 14.4542ZM15.5 11.5H16C16 9.98781 16.0062 9.11315 15.7716 8.39121L15.2961 8.54572L14.8205 8.70023C14.9938 9.23356 15 9.90997 15 11.5H15.5ZM12.6209 5.87056L12.4664 6.34609C13.5827 6.70878 14.4578 7.58396 14.8205 8.70023L15.2961 8.54572L15.7716 8.39121C15.31 6.9705 14.1961 5.85665 12.7754 5.39503L12.6209 5.87056ZM0.5 11.5H1C1 9.90998 1.00617 9.23356 1.17946 8.70023L0.703931 8.54572L0.228403 8.39121C-0.00616866 9.11315 0 9.98781 0 11.5H0.5ZM3.3791 5.87056L3.22459 5.39503C1.80388 5.85665 0.69002 6.9705 0.228403 8.39121L0.703931 8.54572L1.17946 8.70023C1.54216 7.58396 2.41733 6.70878 3.5336 6.34609L3.3791 5.87056ZM12.1667 4.83329H11.6667V5.66663H12.1667H12.6667V4.83329H12.1667ZM3.83333 5.66663H4.33333V4.83329H3.83333H3.33333V5.66663H3.83333ZM8 0.666626V1.16663C10.025 1.16663 11.6667 2.80825 11.6667 4.83329H12.1667H12.6667C12.6667 2.25596 10.5773 0.166626 8 0.166626V0.666626ZM8 0.666626V0.166626C5.42267 0.166626 3.33333 2.25596 3.33333 4.83329H3.83333H4.33333C4.33333 2.80825 5.97496 1.16663 8 1.16663V0.666626ZM8 9.83329H7.5V13.1666H8H8.5V9.83329H8ZM6.33333 5.66663V5.16663C5.15207 5.16663 4.36436 5.16488 3.75027 5.26834L3.83333 5.76139L3.9164 6.25444C4.4273 6.16837 5.11182 6.16663 6.33333 6.16663V5.66663ZM3.83333 5.76139L3.75027 5.26834C3.56573 5.29943 3.3925 5.34047 3.22459 5.39503L3.3791 5.87056L3.5336 6.34609C3.64869 6.30869 3.77349 6.27852 3.9164 6.25444L3.83333 5.76139ZM3.83333 5.66663H3.33333V5.76139H3.83333H4.33333V5.66663H3.83333ZM9.66667 5.66663V6.16663C10.8882 6.16663 11.5727 6.16837 12.0836 6.25444L12.1667 5.76139L12.2497 5.26834C11.6356 5.16488 10.8479 5.16663 9.66667 5.16663V5.66663ZM12.1667 5.76139L12.0836 6.25444C12.2265 6.27852 12.3513 6.30869 12.4664 6.34609L12.6209 5.87056L12.7754 5.39503C12.6075 5.34047 12.4343 5.29943 12.2497 5.26834L12.1667 5.76139ZM12.1667 5.66663H11.6667V5.76139H12.1667H12.6667V5.66663H12.1667Z" fill="black"/>
</svg>
