<svg width="24" height="24" viewBox="0 0 24 24" fill="none" xmlns="http://www.w3.org/2000/svg">
    <path fill-rule="evenodd" clip-rule="evenodd" d="M0 20.7273V3.27273C0 2.40436 0.344727 1.572 0.958909 0.958909C1.572 0.344727 2.40436 0 3.27273 0H20.7273C21.5956 0 22.428 0.344727 23.0411 0.958909C23.6553 1.572 24 2.40436 24 3.27273V20.7273C24 21.5956 23.6553 22.428 23.0411 23.0411C22.428 23.6553 21.5956 24 20.7273 24H3.27273C2.40436 24 1.572 23.6553 0.958909 23.0411C0.344727 22.428 0 21.5956 0 20.7273Z" fill="white"/>
    <path fill-rule="evenodd" clip-rule="evenodd" d="M10.9089 2.18188H3.27255C2.98346 2.18188 2.70528 2.29643 2.50128 2.50152C2.29619 2.70552 2.18164 2.9837 2.18164 3.27279V10.9092H10.9089V2.18188Z" fill="#F15757"/>
    <path fill-rule="evenodd" clip-rule="evenodd" d="M21.8178 10.9092V3.27279C21.8178 2.9837 21.7033 2.70552 21.4982 2.50152C21.2942 2.29643 21.016 2.18188 20.7269 2.18188H13.0906V10.9092H21.8178Z" fill="white"/>
    <path fill-rule="evenodd" clip-rule="evenodd" d="M13.0906 21.8181H20.7269C21.016 21.8181 21.2942 21.7035 21.4982 21.4985C21.7033 21.2945 21.8178 21.0163 21.8178 20.7272V13.0908H13.0906V21.8181Z" fill="#F15757"/>
    <path fill-rule="evenodd" clip-rule="evenodd" d="M2.18164 13.0908V20.7272C2.18164 21.0163 2.29619 21.2945 2.50128 21.4985C2.70528 21.7035 2.98346 21.8181 3.27255 21.8181H10.9089V13.0908H2.18164Z" fill="white"/>
    <path fill-rule="evenodd" clip-rule="evenodd" d="M5.45428 7.63634H4.36337C3.76119 7.63634 3.27246 7.14761 3.27246 6.54543C3.27246 5.94325 3.76119 5.45452 4.36337 5.45452H5.45428V4.36361C5.45428 3.76143 5.94301 3.27271 6.54519 3.27271C7.14737 3.27271 7.6361 3.76143 7.6361 4.36361V5.45452H8.72701C9.32919 5.45452 9.81792 5.94325 9.81792 6.54543C9.81792 7.14761 9.32919 7.63634 8.72701 7.63634H7.6361V8.72725C7.6361 9.32943 7.14737 9.81816 6.54519 9.81816C5.94301 9.81816 5.45428 9.32943 5.45428 8.72725V7.63634Z" fill="white"/>
    <path fill-rule="evenodd" clip-rule="evenodd" d="M5.0028 17.4544L4.23153 16.6831C3.80498 16.2577 3.80498 15.566 4.23153 15.1406C4.65698 14.714 5.34862 14.714 5.77408 15.1406L6.54535 15.9119L7.31662 15.1406C7.74207 14.714 8.43371 14.714 8.85917 15.1406C9.28571 15.566 9.28571 16.2577 8.85917 16.6831L8.08789 17.4544L8.85917 18.2257C9.28571 18.6511 9.28571 19.3428 8.85917 19.7682C8.43371 20.1948 7.74207 20.1948 7.31662 19.7682L6.54535 18.997L5.77408 19.7682C5.34862 20.1948 4.65698 20.1948 4.23153 19.7682C3.80498 19.3428 3.80498 18.6511 4.23153 18.2257L5.0028 17.4544Z" fill="#F15757"/>
    <path fill-rule="evenodd" clip-rule="evenodd" d="M15.2728 7.63641C14.6706 7.63641 14.1819 7.14768 14.1819 6.5455C14.1819 5.94332 14.6706 5.45459 15.2728 5.45459H19.6364C20.2386 5.45459 20.7273 5.94332 20.7273 6.5455C20.7273 7.14768 20.2386 7.63641 19.6364 7.63641H15.2728Z" fill="#F15757"/>
    <path fill-rule="evenodd" clip-rule="evenodd" d="M15.2728 16.909C14.6706 16.909 14.1819 16.4203 14.1819 15.8181C14.1819 15.2159 14.6706 14.7272 15.2728 14.7272H19.6364C20.2386 14.7272 20.7273 15.2159 20.7273 15.8181C20.7273 16.4203 20.2386 16.909 19.6364 16.909H15.2728Z" fill="white"/>
    <path fill-rule="evenodd" clip-rule="evenodd" d="M15.2728 20.1818C14.6706 20.1818 14.1819 19.6931 14.1819 19.0909C14.1819 18.4887 14.6706 18 15.2728 18H19.6364C20.2386 18 20.7273 18.4887 20.7273 19.0909C20.7273 19.6931 20.2386 20.1818 19.6364 20.1818H15.2728Z" fill="white"/>
</svg>
