<svg xmlns="http://www.w3.org/2000/svg" version="1.1" xmlns:xlink="http://www.w3.org/1999/xlink" width="512" height="512" x="0" y="0" viewBox="0 0 513 513" style="enable-background:new 0 0 512 512" xml:space="preserve" fill-rule="evenodd" class="hovered-paths"><g><path d="M386.093 310.919c31.52-29.664 77.809-25.593 102.788-4.367 28.136 23.908 32.016 71.631 3.963 119.444-17.356 31.333-61.021 63.282-97.89 84.168a17.972 17.972 0 0 1-17.722 0c-36.869-20.886-80.535-52.835-97.89-84.168-28.052-47.813-24.173-95.536 3.962-119.444 24.979-21.226 71.268-25.297 102.789 4.367zM242.94 350.023c-2.796 25.636 3.442 55.32 20.896 85.07 1.789 3.231 3.842 6.477 6.126 9.726H48.342A47.379 47.379 0 0 1 .964 397.441v-.04a47.38 47.38 0 0 1 47.378-47.378zm4.841-21.712H48.342A47.378 47.378 0 0 1 .964 280.933v-.04a47.379 47.379 0 0 1 47.378-47.378h345.305a47.379 47.379 0 0 1 46.499 38.297c-18.318-.041-37.276 4.905-54.053 16.184-37.829-25.432-86.749-18.665-114.43 4.857-10.819 9.194-18.952 21.327-23.882 35.458zm193.244-163.925a47.38 47.38 0 0 0-47.378-47.378H48.342A47.378 47.378 0 0 0 .964 164.386v.04a47.379 47.379 0 0 0 47.378 47.378h345.305a47.379 47.379 0 0 0 47.378-47.378zm0-116.508A47.379 47.379 0 0 0 393.647.5H48.342A47.379 47.379 0 0 0 .964 47.878v.04a47.377 47.377 0 0 0 47.378 47.378h345.305a47.379 47.379 0 0 0 47.378-47.378z" fill="#000000" opacity="1" data-original="#000000" class="hovered-path"></path></g></svg>