<svg width="20" height="20" viewBox="0 0 20 20" fill="none" xmlns="http://www.w3.org/2000/svg">
    <path d="M16.0247 0H3.97513C2.9212 0.000889122 1.9108 0.295457 1.16559 0.819084C0.420372 1.34271 0.00119182 2.05264 5.21412e-08 2.79313V19.3748C-6.2052e-05 19.5023 0.0553554 19.6267 0.15882 19.7314C0.262284 19.8361 0.408848 19.9161 0.578853 19.9606C0.748858 20.0052 0.934174 20.0121 1.10995 19.9805C1.28572 19.9489 1.44355 19.8803 1.56225 19.7839L9.99986 12.938L18.438 19.7839C18.5568 19.8803 18.7146 19.9488 18.8903 19.9803C19.066 20.0119 19.2513 20.0049 19.4212 19.9604C19.5911 19.9159 19.7377 19.8359 19.8411 19.7313C19.9446 19.6266 20 19.5022 20 19.3748V2.79313C19.9988 2.05261 19.5796 1.34265 18.8344 0.819017C18.0891 0.295383 17.0786 0.000837459 16.0247 0ZM18.2207 17.6984L10.6726 11.5741C10.5891 11.5063 10.4858 11.452 10.3698 11.4148C10.2538 11.3775 10.1277 11.3582 10.0001 11.3582C9.87258 11.3582 9.74652 11.3775 9.6305 11.4148C9.51447 11.452 9.41121 11.5063 9.3277 11.5741L1.7788 17.6984V2.79313C1.77952 2.38407 2.01112 1.99191 2.4228 1.70266C2.83449 1.41341 3.39264 1.25069 3.97485 1.25018H16.0247C16.6069 1.25069 17.165 1.41341 17.5767 1.70266C17.9884 1.99191 18.22 2.38407 18.2207 2.79313V17.6984ZM12.8575 3.97156C12.8575 4.13732 12.7638 4.29629 12.597 4.4135C12.4301 4.5307 12.2039 4.59655 11.968 4.59655H8.03176C7.79584 4.59655 7.56958 4.5307 7.40276 4.4135C7.23594 4.29629 7.14222 4.13732 7.14222 3.97156C7.14222 3.8058 7.23594 3.64683 7.40276 3.52962C7.56958 3.41241 7.79584 3.34657 8.03176 3.34657H11.968C12.2039 3.34657 12.4301 3.41241 12.597 3.52962C12.7638 3.64683 12.8575 3.8058 12.8575 3.97156Z" fill="white"/>
</svg>
