<svg width="30" height="30" viewBox="0 0 30 30" fill="none" xmlns="http://www.w3.org/2000/svg">
    <path d="M26.25 10L23.75 25H6.25L3.75 10M26.25 10L19.375 15.625L15 8.75M26.25 10C27.2855 10 28.125 9.16053 28.125 8.125C28.125 7.08947 27.2855 6.25 26.25 6.25C25.2145 6.25 24.375 7.08947 24.375 8.125C24.375 9.16053 25.2145 10 26.25 10ZM15 8.75L10.625 15.625L3.75 10M15 8.75C16.0355 8.75 16.875 7.91053 16.875 6.875C16.875 5.83947 16.0355 5 15 5C13.9645 5 13.125 5.83947 13.125 6.875C13.125 7.91053 13.9645 8.75 15 8.75ZM3.75 10C4.78553 10 5.625 9.16053 5.625 8.125C5.625 7.08947 4.78553 6.25 3.75 6.25C2.71447 6.25 1.875 7.08947 1.875 8.125C1.875 9.16053 2.71447 10 3.75 10Z" stroke="#0D1C39" stroke-width="1.5" stroke-linecap="round" stroke-linejoin="round"/>
</svg>
