<svg width="64" height="56" viewBox="0 0 64 56" fill="none" xmlns="http://www.w3.org/2000/svg">
    <g clip-path="url(#clip0_559_2352)">
        <path d="M39.5 4.16101C28.48 4.16101 19.5 13.141 19.5 24.161C19.5 35.181 28.48 44.161 39.5 44.161C50.52 44.161 59.5 35.181 59.5 24.161C59.5 13.141 50.52 4.16101 39.5 4.16101ZM49.06 19.561L37.72 30.901C37.44 31.181 37.06 31.341 36.66 31.341C36.26 31.341 35.88 31.181 35.6 30.901L29.94 25.241C29.36 24.661 29.36 23.701 29.94 23.121C30.52 22.541 31.48 22.541 32.06 23.121L36.66 27.721L46.94 17.441C47.52 16.861 48.48 16.861 49.06 17.441C49.64 18.021 49.64 18.961 49.06 19.561Z" fill="#0D1C39"/>
        <path d="M24.2848 4.04039C23.5465 4.23145 22.634 4.50908 22.0857 5.06856C21.4175 5.74997 21.1716 6.7887 20.9535 7.82427C20.9325 7.92402 20.7965 7.92402 20.7756 7.82427C20.5992 6.99455 20.3727 5.99804 19.896 5.38208C19.2896 4.59828 18.3557 4.2779 17.439 4.04039C17.3433 4.01558 17.3433 3.88363 17.439 3.85882C18.2411 3.65139 19.1599 3.3764 19.7333 2.74039C20.3313 2.07693 20.5715 1.03714 20.7756 0.0749393C20.7965 -0.024817 20.9325 -0.024817 20.9535 0.0749393C21.1439 0.97908 21.4693 2.0062 22.0114 2.65066C22.6 3.35054 23.4319 3.63819 24.2848 3.85882C24.3805 3.88363 24.3805 4.01558 24.2848 4.04039Z" fill="#0D1C39"/>
        <path d="M9.88646 22.5819C8.83165 22.8548 7.52727 23.2517 6.74349 24.0513C5.78862 25.0257 5.43754 26.5099 5.1257 27.9893C5.09588 28.1318 4.90177 28.1324 4.87142 27.9893C4.61975 26.8033 4.29536 25.3793 3.61413 24.4989C2.74768 23.3789 1.41295 22.9208 0.102812 22.5819C-0.0342708 22.5465 -0.0342708 22.3576 0.102812 22.3222C1.24866 22.0261 2.56194 21.6329 3.38182 20.7235C4.23623 19.7755 4.57946 18.2897 4.87142 16.9143C4.90177 16.7717 5.09588 16.7717 5.1257 16.9143C5.3983 18.2063 5.86292 19.6742 6.6378 20.5952C7.47914 21.5954 8.66841 22.0066 9.88646 22.3217C10.0235 22.357 10.0235 22.546 9.88646 22.5814V22.5819Z" fill="#0D1C39"/>
        <path d="M63.9664 11.8668C63.6085 11.9592 63.1659 12.0943 62.8996 12.3656C62.5757 12.696 62.4564 13.2 62.3502 13.7025C62.3397 13.7511 62.2743 13.7511 62.2639 13.7025C62.1786 13.2998 62.0682 12.8168 61.8369 12.5176C61.5429 12.1376 61.0898 11.9818 60.645 11.8668C60.5985 11.8546 60.5985 11.7908 60.645 11.7786C61.0338 11.6778 61.4796 11.5448 61.7579 11.2361C62.0478 10.9141 62.1645 10.41 62.2633 9.94291C62.2738 9.89435 62.3392 9.89435 62.3497 9.94291C62.4423 10.3815 62.5998 10.8798 62.8629 11.1922C63.1486 11.5316 63.552 11.6715 63.9659 11.7781C64.0125 11.7903 64.0125 11.8541 63.9659 11.8663L63.9664 11.8668Z" fill="#0D1C39"/>
        <path d="M24.2421 43.5001C23.8842 43.5925 23.4415 43.7276 23.1752 43.9989C22.8513 44.3293 22.732 44.8333 22.6258 45.3358C22.6154 45.3844 22.55 45.3844 22.5395 45.3358C22.4542 44.9331 22.3438 44.4501 22.1126 44.1509C21.8185 43.7709 21.3654 43.6151 20.9207 43.5001C20.8741 43.4879 20.8741 43.4241 20.9207 43.4119C21.3094 43.3111 21.7552 43.1781 22.0336 42.8694C22.3234 42.5474 22.4401 42.0433 22.539 41.5762C22.5494 41.5277 22.6148 41.5277 22.6253 41.5762C22.7179 42.0148 22.8754 42.5131 23.1386 42.8255C23.4243 43.1649 23.8277 43.3048 24.2415 43.4114C24.2881 43.4236 24.2881 43.4874 24.2415 43.4996L24.2421 43.5001Z" fill="#0D1C39"/>
        <path d="M36.952 53.4499C36.5941 53.5423 36.1515 53.6774 35.8852 53.9487C35.5613 54.2791 35.442 54.7832 35.3358 55.2856C35.3253 55.3342 35.2599 55.3342 35.2495 55.2856C35.1642 54.8829 35.0538 54.4 34.8225 54.1007C34.5285 53.7207 34.0754 53.565 33.6306 53.4499C33.5841 53.4378 33.5841 53.3739 33.6306 53.3618C34.0194 53.261 34.4652 53.128 34.7435 52.8192C35.0334 52.4972 35.1501 51.9932 35.2489 51.526C35.2594 51.4775 35.3248 51.4775 35.3353 51.526C35.4279 51.9647 35.5854 52.4629 35.8485 52.7754C36.1342 53.1148 36.5376 53.2546 36.9515 53.3612C36.9981 53.3734 36.9981 53.4372 36.9515 53.4494L36.952 53.4499Z" fill="#0D1C39"/>
    </g>
    <defs>
        <clipPath id="clip0_559_2352">
            <rect width="64" height="55.322" fill="white"/>
        </clipPath>
    </defs>
</svg>
