<svg width="19" height="19" viewBox="0 0 19 19" fill="none" xmlns="http://www.w3.org/2000/svg">
    <path fill-rule="evenodd" clip-rule="evenodd" d="M0.9785 12.3659C0.42275 12.4656 0 12.95 0 13.5341V14.009C0 14.5931 0.42275 15.0775 0.97375 15.1772C0.9595 15.2532 0.95 15.3339 0.95 15.4194V15.9275C0.95 16.0082 0.9595 16.089 0.97375 16.1697C0.418 16.2694 0 16.7538 0 17.3379V17.8128C0 18.4681 0.532 19 1.1875 19H5.4625C6.118 19 6.65 18.4681 6.65 17.8128V17.3379C6.65 17.2524 6.6405 17.167 6.6215 17.0862C7.17725 16.996 7.6 16.5116 7.6 15.9323V15.4241C7.6 14.8448 7.17725 14.3604 6.6215 14.2702C6.6405 14.1895 6.65 14.104 6.65 14.0185V13.5436C6.65 13.4581 6.6405 13.3727 6.6215 13.2872C6.859 13.2444 7.0775 13.1305 7.25325 12.9595C7.4765 12.7363 7.6 12.4371 7.6 12.119V11.6441C7.6 11.3307 7.4765 11.0267 7.25325 10.8035C7.03 10.5804 6.73075 10.4569 6.4125 10.4569H2.1375C1.824 10.4569 1.52 10.5804 1.29675 10.8035C1.0735 11.0267 0.95 11.3259 0.95 11.6441V12.119C0.95 12.2044 0.9595 12.2899 0.9785 12.3754V12.3659ZM19 14.2464H14.25V18.9953H17.575C17.955 18.9953 18.316 18.8433 18.582 18.5774C18.848 18.3114 19 17.9458 19 17.5706V14.2464ZM8.55 14.2464V17.5706C8.55 17.9505 8.702 18.3114 8.968 18.5774C9.234 18.8433 9.59975 18.9953 9.975 18.9953H13.3V14.2464H8.55ZM17.575 16.6208H15.675C15.4137 16.6208 15.2 16.8345 15.2 17.0957C15.2 17.3569 15.4137 17.5706 15.675 17.5706H17.575C17.8363 17.5706 18.05 17.3569 18.05 17.0957C18.05 16.8345 17.8363 16.6208 17.575 16.6208ZM11.7942 16.3834L12.1315 16.0462C12.3168 15.861 12.3168 15.5619 12.1315 15.3767C11.9462 15.1915 11.647 15.1915 11.4617 15.3767L11.1245 15.7138L10.7872 15.3767C10.602 15.1915 10.3027 15.1915 10.1175 15.3767C9.93225 15.5619 9.93225 15.861 10.1175 16.0462L10.4548 16.3834L10.1175 16.7206C9.93225 16.9058 9.93225 17.2049 10.1175 17.3902C10.3027 17.5754 10.602 17.5754 10.7872 17.3902L11.1245 17.053L11.4617 17.3902C11.647 17.5754 11.9462 17.5754 12.1315 17.3902C12.3168 17.2049 12.3168 16.9058 12.1315 16.7206L11.7942 16.3834ZM17.575 15.1962H15.675C15.4137 15.1962 15.2 15.4099 15.2 15.6711C15.2 15.9323 15.4137 16.146 15.675 16.146H17.575C17.8363 16.146 18.05 15.9323 18.05 15.6711C18.05 15.4099 17.8363 15.1962 17.575 15.1962ZM13.3 13.2967H8.55V9.49763H13.3V13.2967ZM19 13.2967H14.25V9.49763H19V13.2967ZM17.1 10.9223V10.4474C17.1 10.1862 16.8862 9.97251 16.625 9.97251C16.3638 9.97251 16.15 10.1862 16.15 10.4474V10.9223H15.675C15.4137 10.9223 15.2 11.136 15.2 11.3972C15.2 11.6583 15.4137 11.872 15.675 11.872H16.15V12.3469C16.15 12.6081 16.3638 12.8218 16.625 12.8218C16.8862 12.8218 17.1 12.6081 17.1 12.3469V11.872H17.575C17.8363 11.872 18.05 11.6583 18.05 11.3972C18.05 11.136 17.8363 10.9223 17.575 10.9223H17.1ZM11.875 10.9223H9.975C9.71375 10.9223 9.5 11.136 9.5 11.3972C9.5 11.6583 9.71375 11.872 9.975 11.872H11.875C12.1362 11.872 12.35 11.6583 12.35 11.3972C12.35 11.136 12.1362 10.9223 11.875 10.9223ZM8.55 8.54786H19V8.07298C19 7.69308 18.848 7.33217 18.582 7.06623C18.316 6.8003 17.9503 6.64834 17.575 6.64834H9.975C9.595 6.64834 9.234 6.8003 8.968 7.06623C8.702 7.33217 8.55 7.69783 8.55 8.07298V8.54786ZM4.275 0C1.91425 0 0 1.91377 0 4.27393C0 6.63409 1.91425 8.54786 4.275 8.54786C6.63575 8.54786 8.55 6.63409 8.55 4.27393C8.55 1.91377 6.63575 0 4.275 0ZM4.75 2.37441V1.89953C4.75 1.63834 4.53625 1.42464 4.275 1.42464C4.01375 1.42464 3.8 1.63834 3.8 1.89953V2.39815C3.572 2.44564 3.363 2.55486 3.19675 2.72107C2.9735 2.94426 2.85 3.24344 2.85 3.56161C2.85 3.87978 2.9735 4.17896 3.19675 4.40215C3.42 4.62534 3.71925 4.74881 4.0375 4.74881H4.5125C4.57425 4.74881 4.636 4.77256 4.67875 4.82004C4.7215 4.86278 4.75 4.92452 4.75 4.98625C4.75 5.04799 4.72625 5.10972 4.67875 5.15246C4.636 5.1952 4.57425 5.22369 4.5125 5.22369H3.325C3.06375 5.22369 2.85 5.43739 2.85 5.69858C2.85 5.95976 3.06375 6.17346 3.325 6.17346H3.8V6.64834C3.8 6.90952 4.01375 7.12322 4.275 7.12322C4.53625 7.12322 4.75 6.90952 4.75 6.64834V6.14971C4.978 6.10222 5.187 5.993 5.35325 5.82679C5.5765 5.6036 5.7 5.30442 5.7 4.98625C5.7 4.66808 5.5765 4.36891 5.35325 4.14571C5.13 3.92252 4.83075 3.79905 4.5125 3.79905H4.0375C3.97575 3.79905 3.914 3.77531 3.87125 3.72782C3.8285 3.68508 3.8 3.62334 3.8 3.56161C3.8 3.49988 3.82375 3.43814 3.87125 3.3954C3.914 3.35266 3.97575 3.32417 4.0375 3.32417H5.225C5.48625 3.32417 5.7 3.11047 5.7 2.84929C5.7 2.5881 5.48625 2.37441 5.225 2.37441H4.75Z" fill="white"/>
</svg>
