<svg width="24" height="24" viewBox="0 0 24 24" fill="none" xmlns="http://www.w3.org/2000/svg">
    <path fill-rule="evenodd" clip-rule="evenodd" d="M3.33131 13.2083H10.6321C10.8725 13.2082 11.1031 13.112 11.2731 12.9409C11.4432 12.7698 11.5387 12.5379 11.5389 12.2959V9.81025C11.5386 9.56834 11.443 9.33642 11.273 9.16536C11.103 8.9943 10.8725 8.89809 10.6321 8.89783H3.33131C3.09088 8.89811 2.86038 8.99433 2.69034 9.16537C2.52031 9.33642 2.42463 9.56833 2.42428 9.81025V12.2959C2.42452 12.5379 2.52016 12.7698 2.69022 12.9409C2.86028 13.112 3.09085 13.2082 3.33131 13.2083ZM3.21947 9.8103C3.21987 9.78058 3.23178 9.7522 3.25267 9.73119C3.27356 9.71018 3.30178 9.6982 3.33131 9.69781H10.6321C10.6616 9.69825 10.6898 9.71024 10.7107 9.73124C10.7315 9.75224 10.7435 9.7806 10.7439 9.8103V12.296C10.7435 12.3257 10.7315 12.354 10.7107 12.375C10.6898 12.396 10.6616 12.408 10.6321 12.4084H3.33131C3.30178 12.4081 3.27356 12.3961 3.25267 12.3751C3.23178 12.3541 3.21987 12.3257 3.21947 12.296V9.8103ZM3.10228 16.775H4.63008C4.80983 16.7748 4.98215 16.7028 5.10925 16.5749C5.23635 16.447 5.30785 16.2736 5.30808 16.0928V15.0169C5.30784 14.836 5.23633 14.6627 5.10922 14.5348C4.98211 14.407 4.8098 14.3351 4.63008 14.3349H3.10228C2.92257 14.3351 2.75028 14.407 2.62318 14.5349C2.49608 14.6627 2.42455 14.8361 2.42428 15.0169V16.0928C2.42454 16.2736 2.49606 16.447 2.62315 16.5749C2.75024 16.7028 2.92254 16.7747 3.10228 16.775ZM3.21947 15.1348H4.51284V15.9749H3.21947V15.1348ZM10.8616 14.3349H9.33305C9.15342 14.3352 8.98121 14.4071 8.85424 14.535C8.72727 14.6628 8.6559 14.8361 8.6558 15.0169V16.0928C8.65588 16.2736 8.72724 16.4469 8.85421 16.5748C8.98118 16.7027 9.15339 16.7747 9.33305 16.775H10.8616C11.0412 16.7746 11.2134 16.7026 11.3404 16.5747C11.4673 16.4469 11.5387 16.2735 11.5389 16.0928V15.0169C11.5387 14.8362 11.4673 14.6629 11.3403 14.535C11.2134 14.4072 11.0412 14.3352 10.8616 14.3349ZM10.7437 15.9749H9.45075V15.1348H10.7437V15.9749ZM7.74581 14.3349H6.21769C6.038 14.3351 5.86573 14.4071 5.73867 14.5349C5.61161 14.6627 5.54013 14.8361 5.53992 15.0169V16.0928C5.54012 16.2736 5.61158 16.447 5.73864 16.5749C5.8657 16.7028 6.03797 16.7747 6.21769 16.775H7.74581C7.92552 16.7747 8.09779 16.7027 8.22485 16.5749C8.3519 16.447 8.42337 16.2736 8.42358 16.0928V15.0169C8.42337 14.8361 8.35189 14.6627 8.22483 14.5349C8.09777 14.4071 7.9255 14.3351 7.74581 14.3349ZM7.62862 15.9749H6.33488V15.1348H7.62862V15.9749ZM3.10228 19.8243H4.63008C4.8098 19.8242 4.98211 19.7523 5.10922 19.6244C5.23633 19.4966 5.30784 19.3232 5.30808 19.1424V18.0665C5.30785 17.8856 5.23635 17.7122 5.10925 17.5844C4.98215 17.4565 4.80983 17.3845 4.63008 17.3843H3.10228C2.92254 17.3846 2.75024 17.4565 2.62315 17.5844C2.49606 17.7123 2.42454 17.8856 2.42428 18.0665V19.1424C2.42455 19.3232 2.49608 19.4966 2.62318 19.6244C2.75028 19.7522 2.92257 19.8241 3.10228 19.8243ZM3.21947 18.1845H4.51284V19.0244H3.21947V18.1845ZM10.8616 17.3843H9.33305C9.15339 17.3846 8.98118 17.4566 8.85421 17.5845C8.72724 17.7124 8.65588 17.8857 8.6558 18.0665V19.1424C8.6559 19.3232 8.72727 19.4965 8.85424 19.6243C8.98121 19.7522 9.15342 19.8241 9.33305 19.8243H10.8616C11.0412 19.824 11.2134 19.7521 11.3403 19.6242C11.4673 19.4964 11.5387 19.3231 11.5389 19.1424V18.0665C11.5387 17.8857 11.4673 17.7124 11.3404 17.5845C11.2134 17.4567 11.0412 17.3846 10.8616 17.3843ZM10.7437 19.0244H9.45075V18.1845H10.7437V19.0244ZM7.74581 17.3843H6.21769C6.03797 17.3846 5.8657 17.4565 5.73864 17.5844C5.61158 17.7123 5.54012 17.8857 5.53992 18.0665V19.1424C5.54013 19.3232 5.61161 19.4965 5.73867 19.6244C5.86573 19.7522 6.038 19.8241 6.21769 19.8243H7.74581C7.9255 19.8241 8.09777 19.7522 8.22483 19.6244C8.35189 19.4965 8.42337 19.3232 8.42358 19.1424V18.0665C8.42337 17.8857 8.3519 17.7123 8.22485 17.5844C8.09779 17.4565 7.92552 17.3846 7.74581 17.3843ZM7.62862 19.0244H6.33488V18.1845H7.62862V19.0244ZM3.10228 22.874H4.63008C4.8098 22.8738 4.98213 22.8019 5.10924 22.674C5.23634 22.5462 5.30785 22.3728 5.30808 22.192V21.1154C5.30783 20.9346 5.2363 20.7613 5.10918 20.6335C4.98206 20.5057 4.80975 20.4339 4.63008 20.4339H3.10228C2.92262 20.434 2.75033 20.5058 2.62322 20.6335C2.49611 20.7613 2.42457 20.9346 2.42428 21.1154V22.192C2.42455 22.3728 2.49608 22.5461 2.62318 22.674C2.75028 22.8018 2.92257 22.8737 3.10228 22.874ZM3.21947 21.2338H4.51284V22.0738H3.21947V21.2338ZM10.8616 20.4339H9.33305C9.15346 20.434 8.98126 20.5058 8.85428 20.6336C8.7273 20.7614 8.65591 20.9347 8.6558 21.1154V22.192C8.6559 22.3727 8.72726 22.5461 8.85424 22.6739C8.98121 22.8018 9.15341 22.8737 9.33305 22.874H10.8616C11.0412 22.8736 11.2134 22.8017 11.3403 22.6738C11.4673 22.546 11.5387 22.3727 11.5389 22.192V21.1154C11.5387 20.9347 11.4673 20.7615 11.3403 20.6337C11.2133 20.5059 11.0412 20.4341 10.8616 20.4339ZM10.7439 22.0738H9.45075V21.2338H10.7437V22.0738H10.7439ZM7.74595 20.4339H6.21783C6.03819 20.434 5.86592 20.5058 5.73885 20.6336C5.61178 20.7613 5.54029 20.9346 5.54006 21.1154V22.192C5.54027 22.3728 5.61175 22.5461 5.73881 22.674C5.86587 22.8018 6.03814 22.8737 6.21783 22.874H7.74595C7.92564 22.8737 8.09791 22.8018 8.22497 22.674C8.35203 22.5461 8.42351 22.3728 8.42372 22.192V21.1154C8.42348 20.9346 8.35198 20.7613 8.22492 20.6336C8.09785 20.5058 7.92559 20.434 7.74595 20.4339ZM7.62877 22.0738H6.33502V21.2338H7.62877V22.0738ZM8.99859 6.82535C8.99869 6.74899 9.02888 6.6758 9.08253 6.62181C9.13619 6.56782 9.20893 6.53745 9.28481 6.53735H10.4575C10.5334 6.53732 10.6063 6.56765 10.66 6.62166C10.7137 6.67567 10.7439 6.74893 10.7439 6.82535V7.05278H8.99855V6.82535H8.99859ZM3.94219 0.129828C3.94629 0.0940849 3.9633 0.061106 3.99 0.0371671C4.01669 0.0132281 4.0512 0 4.08696 0C4.12272 0 4.15723 0.0132281 4.18392 0.0371671C4.21062 0.061106 4.22763 0.0940849 4.23173 0.129828L4.82461 5.3489H3.34959L3.94219 0.129828ZM2.8418 6.14884H5.33175V7.05278H2.8418V6.14884ZM1.38572 8.30698C1.386 8.18655 1.43371 8.07114 1.51839 7.98603C1.60307 7.90093 1.71782 7.85306 1.8375 7.85291H12.1261C12.2458 7.85308 12.3605 7.90098 12.445 7.98609C12.5296 8.07121 12.5772 8.1866 12.5774 8.30698V23.5461C12.5772 23.6665 12.5296 23.7818 12.445 23.8669C12.3604 23.952 12.2457 23.9998 12.1261 24H1.8375C1.71784 23.9999 1.60312 23.952 1.51844 23.867C1.43377 23.7819 1.38604 23.6665 1.38572 23.5461V8.30698ZM0 14.5838V13.0578C0.000148874 12.9279 0.0514989 12.8034 0.142785 12.7115C0.234071 12.6197 0.357839 12.568 0.486937 12.5679H0.590625V15.074H0.486937C0.357818 15.0738 0.23405 15.0221 0.142771 14.9302C0.0514912 14.8383 0.000148741 14.7137 0 14.5838ZM23.6882 15.8734L23.1445 15.7519C23.0603 15.4676 22.9472 15.1929 22.807 14.932L23.107 14.4588C23.1551 14.3819 23.176 14.2909 23.1662 14.2006C23.1564 14.1102 23.1165 14.0259 23.0531 13.9613L22.0239 12.9269C21.9599 12.8625 21.8761 12.822 21.7862 12.812C21.6963 12.802 21.6056 12.8232 21.5293 12.8719L21.0605 13.1729C20.8007 13.0317 20.5272 12.9176 20.2442 12.8323L20.1235 12.2865C20.1039 12.1976 20.0547 12.1181 19.9841 12.0611C19.9136 12.0041 19.8258 11.973 19.7353 11.973H18.2805C18.19 11.973 18.1023 12.0041 18.0318 12.0611C17.9612 12.1181 17.9121 12.1976 17.8925 12.2865L17.7715 12.8328C17.4889 12.9175 17.2158 13.0315 16.9567 13.1729L16.4866 12.8719C16.4103 12.8232 16.3197 12.802 16.2298 12.812C16.1399 12.822 16.0561 12.8625 15.9922 12.9269L14.964 13.9613C14.9001 14.0256 14.8598 14.1099 14.8499 14.2004C14.84 14.2908 14.8609 14.3819 14.9093 14.4588L15.2085 14.932C15.068 15.1929 14.9547 15.4676 14.8702 15.7519L14.3275 15.8734C14.2392 15.8932 14.1602 15.9426 14.1036 16.0136C14.0469 16.0845 14.016 16.1728 14.0159 16.2638V17.7275C14.0159 17.8186 14.0468 17.9069 14.1035 17.9778C14.1601 18.0488 14.2392 18.0982 14.3275 18.1179L14.8702 18.2394C14.9546 18.5239 15.0679 18.7988 15.2085 19.0598L14.9093 19.5326C14.8609 19.6094 14.84 19.7005 14.8499 19.7909C14.8598 19.8814 14.9 19.9657 14.964 20.03L15.9922 21.0649C16.0562 21.1292 16.14 21.1696 16.2299 21.1795C16.3198 21.1895 16.4103 21.1682 16.4866 21.1194L16.9567 20.8189C17.216 20.96 17.4891 21.0739 17.7715 21.159L17.8925 21.7053C17.9121 21.7941 17.9613 21.8736 18.0318 21.9305C18.1024 21.9874 18.1901 22.0184 18.2805 22.0184H19.7349C19.8254 22.0184 19.9132 21.9875 19.9838 21.9305C20.0543 21.8736 20.1035 21.7942 20.1232 21.7053L20.2439 21.159C20.5268 21.0739 20.8003 20.9599 21.0602 20.8189L21.5289 21.1194C21.6053 21.1682 21.6958 21.1895 21.7858 21.1796C21.8757 21.1697 21.9596 21.1292 22.0236 21.0649L23.0531 20.03C23.1166 19.9654 23.1565 19.8811 23.1663 19.7908C23.176 19.7004 23.1552 19.6094 23.107 19.5326L22.807 19.0598C22.9473 18.7988 23.0604 18.5238 23.1445 18.2394L23.6883 18.1179C23.7767 18.0984 23.8558 18.049 23.9125 17.978C23.9692 17.907 24.0001 17.8186 24 17.7275V16.2637C24 16.1726 23.9691 16.0842 23.9124 16.0132C23.8557 15.9422 23.7766 15.8929 23.6882 15.8733V15.8734ZM19.0078 14.4354C19.511 14.4355 20.003 14.5857 20.4213 14.8671C20.8397 15.1484 21.1658 15.5483 21.3584 16.0161C21.5509 16.4839 21.6012 16.9987 21.503 17.4953C21.4048 17.992 21.1625 18.4481 20.8066 18.8062C20.4508 19.1642 19.9974 19.408 19.5038 19.5068C19.0103 19.6055 18.4987 19.5548 18.0337 19.3611C17.5688 19.1673 17.1714 18.8391 16.8919 18.4181C16.6123 17.9971 16.463 17.5021 16.463 16.9958C16.4638 16.3169 16.7322 15.6661 17.2093 15.1861C17.6863 14.7061 18.3332 14.4362 19.0078 14.4354ZM19.0078 18.7558C18.6618 18.7559 18.3235 18.6527 18.0357 18.4593C17.748 18.2659 17.5237 17.991 17.3912 17.6694C17.2588 17.3477 17.2241 16.9938 17.2915 16.6523C17.359 16.3108 17.5256 15.9971 17.7703 15.7508C18.015 15.5046 18.3267 15.3369 18.6661 15.269C19.0055 15.2011 19.3572 15.2359 19.6769 15.3692C19.9966 15.5024 20.2699 15.7281 20.4621 16.0176C20.6543 16.3071 20.7569 16.6475 20.7569 16.9956C20.7563 17.4623 20.5719 17.9096 20.244 18.2396C19.9161 18.5696 19.4716 18.7553 19.0078 18.756V18.7558Z" fill="white"/>
</svg>
