<svg width="19" height="20" viewBox="0 0 19 20" fill="none" xmlns="http://www.w3.org/2000/svg">
    <path d="M8.97552 13.0586C9.02082 13.0513 9.06406 13.0344 9.10242 13.0092C9.14077 12.984 9.17337 12.951 9.19808 12.9123L9.93253 11.7391L11.3029 11.5293C11.3482 11.522 11.3914 11.5051 11.4298 11.4799C11.4681 11.4547 11.5007 11.4217 11.5254 11.383L12.2853 10.1749L13.6048 9.65028L14.3901 10.0986C14.4511 10.1328 14.5215 10.1464 14.5909 10.1372C14.6603 10.128 14.7248 10.0966 14.7748 10.0477L18.5011 6.31826C18.7988 6.02001 18.9661 5.61579 18.9661 5.19435C18.9661 4.7729 18.7988 4.36868 18.5011 4.07043L14.8956 0.46499C14.5974 0.167235 14.1931 0 13.7717 0C13.3502 0 12.946 0.167235 12.6478 0.46499L7.32858 5.78095C7.29358 5.82058 7.26789 5.86754 7.25339 5.91839C7.2389 5.96923 7.23596 6.02268 7.2448 6.07481C7.25364 6.12694 7.27403 6.17643 7.30448 6.21966C7.33493 6.26288 7.37467 6.29875 7.42078 6.32462L0.371996 13.3734C0.133777 13.6122 0 13.9358 0 14.2731C0 14.6105 0.133777 14.934 0.371996 15.1729L1.37351 16.1744C1.57061 16.3693 1.82706 16.493 2.1023 16.5258C2.37755 16.5586 2.65588 16.4987 2.89328 16.3556L4.3272 16.1172C4.37141 16.1091 4.41346 16.092 4.45068 16.0668C4.4879 16.0416 4.51947 16.009 4.5434 15.9709L5.27785 14.7977L6.64818 14.5879C6.69348 14.5806 6.73673 14.5637 6.77508 14.5385C6.81343 14.5133 6.84603 14.4803 6.87074 14.4416L7.60519 13.2684L8.97552 13.0586ZM11.7798 4.47739L13.112 3.14522C13.1723 3.0863 13.2533 3.05332 13.3377 3.05332C13.422 3.05332 13.5031 3.0863 13.5634 3.14522L15.8208 5.4026C15.8797 5.46235 15.9127 5.54286 15.9127 5.62675C15.9127 5.71063 15.8797 5.79114 15.8208 5.85089L14.4886 7.18624C14.4272 7.24297 14.3466 7.27447 14.2629 7.27447C14.1792 7.27447 14.0986 7.24297 14.0372 7.18624L11.7798 4.92887C11.7202 4.86884 11.6868 4.7877 11.6868 4.70313C11.6868 4.61856 11.7202 4.53742 11.7798 4.47739ZM10.0979 5.3708C10.3489 5.37371 10.5887 5.47548 10.7652 5.65405C10.9417 5.83261 11.0407 6.07356 11.0407 6.32464C11.0407 6.57572 10.9417 6.81667 10.7652 6.99523C10.5887 7.17379 10.3489 7.27555 10.0978 7.27844C9.84678 7.2755 9.60702 7.17372 9.43054 6.99516C9.25406 6.8166 9.15509 6.57566 9.1551 6.32461C9.1551 6.07355 9.25408 5.83262 9.43057 5.65407C9.60705 5.47552 9.84682 5.37373 10.0979 5.3708ZM7.14417 12.8074L6.40972 13.9806L5.03939 14.1904C4.99409 14.1978 4.95084 14.2146 4.91249 14.2398C4.87414 14.265 4.84154 14.298 4.81683 14.3367L4.07921 15.5131L2.72477 15.7388C2.41061 15.8982 2.09723 16.0018 1.82499 15.7229L0.823474 14.7214C0.764513 14.6626 0.717735 14.5927 0.685818 14.5158C0.653901 14.4389 0.637471 14.3564 0.637471 14.2731C0.637471 14.1898 0.653901 14.1074 0.685818 14.0304C0.717735 13.9535 0.764513 13.8836 0.823474 13.8248L7.87226 6.77609L9.50012 8.40394C9.64796 8.55157 9.82348 8.66856 10.0166 8.74821C10.2098 8.82787 10.4167 8.86862 10.6256 8.86814H12.2376L12.8989 9.24649L11.9546 9.62165C11.8919 9.64741 11.8387 9.69181 11.802 9.74883L11.0644 10.922L9.69407 11.1319C9.64876 11.1392 9.60552 11.156 9.56717 11.1812C9.52881 11.2064 9.49622 11.2394 9.47151 11.2781L8.73706 12.4513L7.36673 12.6612C7.32143 12.6685 7.27818 12.6853 7.23983 12.7105C7.20147 12.7357 7.16888 12.7687 7.14417 12.8074Z" fill="white"/>
    <path d="M11.3694 15.6371C10.8547 15.7956 10.3182 15.8718 9.7797 15.8628C8.33306 15.8628 7.5541 15.4113 7.5541 15.2269C7.5541 15.0425 8.33306 14.5911 9.7797 14.5911C10.3182 14.5821 10.8547 14.6583 11.3694 14.8168V14.1523C10.0993 13.7383 6.93209 13.9414 6.91821 15.227V17.6878C6.91819 17.8742 6.97264 18.0566 7.07488 18.2125C7.17712 18.3684 7.32269 18.491 7.49369 18.5653C8.87091 19.1531 10.4215 19.1884 11.8241 18.6639C11.5291 18.3182 11.3678 17.8783 11.3694 17.4239V15.6371ZM9.14381 17.1346C9.14257 17.2181 9.10852 17.2977 9.04903 17.3564C8.98954 17.415 8.90937 17.4478 8.82586 17.4478C8.74234 17.4478 8.66218 17.415 8.60269 17.3563C8.5432 17.2977 8.50916 17.2181 8.50792 17.1346V16.3747C8.71689 16.4185 8.9292 16.447 9.14381 16.4701V17.1346ZM11.0515 18.2442C10.8426 18.2993 10.6301 18.3397 10.4156 18.365V17.7705C10.4168 17.6869 10.4509 17.6073 10.5104 17.5487C10.5698 17.4901 10.65 17.4572 10.7335 17.4572C10.817 17.4572 10.8972 17.4901 10.9567 17.5487C11.0162 17.6073 11.0502 17.6869 11.0515 17.7705V18.2442Z" fill="white"/>
    <path d="M15.5027 11.0938C13.8283 11.1067 12.046 11.4537 12.0054 12.3655V17.4239C12.0048 17.606 12.0431 17.7861 12.1177 17.9522C12.1923 18.1183 12.3014 18.2666 12.4378 18.3873C12.5644 18.4957 12.7114 18.5779 12.8702 18.6289C14.5756 19.1771 16.4095 19.1793 18.1162 18.6353C18.3733 18.5537 18.5976 18.3922 18.7566 18.1744C18.9156 17.9565 19.0009 17.6936 19.0001 17.4239V12.3655C18.9604 11.4531 17.1766 11.1071 15.5027 11.0938ZM14.231 16.8167C14.1475 16.8154 14.0678 16.7814 14.0092 16.7219C13.9506 16.6624 13.9177 16.5822 13.9177 16.4987C13.9177 16.4152 13.9506 16.335 14.0092 16.2756C14.0678 16.2161 14.1475 16.182 14.231 16.1808C14.3145 16.182 14.3942 16.2161 14.4528 16.2756C14.5114 16.3351 14.5442 16.4152 14.5442 16.4987C14.5442 16.5823 14.5114 16.6624 14.4528 16.7219C14.3941 16.7814 14.3145 16.8154 14.231 16.8167ZM14.5489 15.227C14.5477 15.3105 14.5136 15.3901 14.4541 15.4488C14.3946 15.5074 14.3145 15.5402 14.231 15.5402C14.1474 15.5402 14.0673 15.5074 14.0078 15.4487C13.9483 15.3901 13.9143 15.3105 13.913 15.227V13.5133C14.1215 13.5499 14.3376 13.5732 14.5489 13.5959V15.227ZM16.1386 17.4525C16.1374 17.5361 16.1033 17.6157 16.0438 17.6743C15.9844 17.7329 15.9042 17.7658 15.8207 17.7658C15.7372 17.7658 15.657 17.7329 15.5975 17.6743C15.538 17.6157 15.504 17.536 15.5027 17.4525V14.909C15.5027 14.8247 15.5362 14.7438 15.5959 14.6842C15.6555 14.6246 15.7364 14.5911 15.8207 14.5911C15.905 14.5911 15.9859 14.6246 16.0455 14.6842C16.1051 14.7438 16.1386 14.8247 16.1386 14.909V17.4525ZM17.4104 14.5911C17.4092 14.6746 17.3751 14.7543 17.3156 14.8129C17.2561 14.8715 17.176 14.9043 17.0924 14.9043C17.0089 14.9043 16.9288 14.8715 16.8693 14.8129C16.8098 14.7542 16.7757 14.6746 16.7745 14.5911V13.561C16.9867 13.5302 17.2021 13.4998 17.4104 13.4529V14.5911ZM12.6413 12.3655C12.6985 12.1875 13.6523 11.7296 15.5027 11.7296C17.3385 11.7315 18.294 12.1749 18.3642 12.3655C17.4761 13.2343 13.4406 13.2016 12.6413 12.3655Z" fill="white"/>
</svg>
